<?xml version="1.0" encoding="utf-8" standalone="no"?>
<!DOCTYPE svg PUBLIC "-//W3C//DTD SVG 1.1//EN"
  "http://www.w3.org/Graphics/SVG/1.1/DTD/svg11.dtd">
<!-- Created with matplotlib (https://matplotlib.org/) -->
<svg height="302pt" version="1.1" viewBox="0 0 422 302" width="422pt" xmlns="http://www.w3.org/2000/svg" xmlns:xlink="http://www.w3.org/1999/xlink">
 <defs>
  <style type="text/css">
*{stroke-linecap:butt;stroke-linejoin:round;}
  </style>
 </defs>
 <g id="figure_1">
  <g id="patch_1">
   <path d="M 0 302 
L 422 302 
L 422 0 
L 0 0 
z
" style="fill:#ffffff;"/>
  </g>
  <g id="axes_1">
   <g id="patch_2">
    <path d="M 40.065625 241.248967 
L 411.2 241.248967 
L 411.2 10.8 
L 40.065625 10.8 
z
" style="fill:#ffffff;"/>
   </g>
   <g id="matplotlib.axis_1">
    <g id="xtick_1">
     <g id="line2d_1">
      <defs>
       <path d="M 0 0 
L 0 3.5 
" id="mb5c23993e0" style="stroke:#000000;stroke-width:0.8;"/>
      </defs>
      <g>
       <use style="stroke:#000000;stroke-width:0.8;" x="76.547258" xlink:href="#mb5c23993e0" y="241.248967"/>
      </g>
     </g>
     <g id="text_1">
      <!-- 2013-07 -->
      <defs>
       <path d="M 19.1875 8.296875 
L 53.609375 8.296875 
L 53.609375 0 
L 7.328125 0 
L 7.328125 8.296875 
Q 12.9375 14.109375 22.625 23.890625 
Q 32.328125 33.6875 34.8125 36.53125 
Q 39.546875 41.84375 41.421875 45.53125 
Q 43.3125 49.21875 43.3125 52.78125 
Q 43.3125 58.59375 39.234375 62.25 
Q 35.15625 65.921875 28.609375 65.921875 
Q 23.96875 65.921875 18.8125 64.3125 
Q 13.671875 62.703125 7.8125 59.421875 
L 7.8125 69.390625 
Q 13.765625 71.78125 18.9375 73 
Q 24.125 74.21875 28.421875 74.21875 
Q 39.75 74.21875 46.484375 68.546875 
Q 53.21875 62.890625 53.21875 53.421875 
Q 53.21875 48.921875 51.53125 44.890625 
Q 49.859375 40.875 45.40625 35.40625 
Q 44.1875 33.984375 37.640625 27.21875 
Q 31.109375 20.453125 19.1875 8.296875 
z
" id="DejaVuSans-50"/>
       <path d="M 31.78125 66.40625 
Q 24.171875 66.40625 20.328125 58.90625 
Q 16.5 51.421875 16.5 36.375 
Q 16.5 21.390625 20.328125 13.890625 
Q 24.171875 6.390625 31.78125 6.390625 
Q 39.453125 6.390625 43.28125 13.890625 
Q 47.125 21.390625 47.125 36.375 
Q 47.125 51.421875 43.28125 58.90625 
Q 39.453125 66.40625 31.78125 66.40625 
z
M 31.78125 74.21875 
Q 44.046875 74.21875 50.515625 64.515625 
Q 56.984375 54.828125 56.984375 36.375 
Q 56.984375 17.96875 50.515625 8.265625 
Q 44.046875 -1.421875 31.78125 -1.421875 
Q 19.53125 -1.421875 13.0625 8.265625 
Q 6.59375 17.96875 6.59375 36.375 
Q 6.59375 54.828125 13.0625 64.515625 
Q 19.53125 74.21875 31.78125 74.21875 
z
" id="DejaVuSans-48"/>
       <path d="M 12.40625 8.296875 
L 28.515625 8.296875 
L 28.515625 63.921875 
L 10.984375 60.40625 
L 10.984375 69.390625 
L 28.421875 72.90625 
L 38.28125 72.90625 
L 38.28125 8.296875 
L 54.390625 8.296875 
L 54.390625 0 
L 12.40625 0 
z
" id="DejaVuSans-49"/>
       <path d="M 40.578125 39.3125 
Q 47.65625 37.796875 51.625 33 
Q 55.609375 28.21875 55.609375 21.1875 
Q 55.609375 10.40625 48.1875 4.484375 
Q 40.765625 -1.421875 27.09375 -1.421875 
Q 22.515625 -1.421875 17.65625 -0.515625 
Q 12.796875 0.390625 7.625 2.203125 
L 7.625 11.71875 
Q 11.71875 9.328125 16.59375 8.109375 
Q 21.484375 6.890625 26.8125 6.890625 
Q 36.078125 6.890625 40.9375 10.546875 
Q 45.796875 14.203125 45.796875 21.1875 
Q 45.796875 27.640625 41.28125 31.265625 
Q 36.765625 34.90625 28.71875 34.90625 
L 20.21875 34.90625 
L 20.21875 43.015625 
L 29.109375 43.015625 
Q 36.375 43.015625 40.234375 45.921875 
Q 44.09375 48.828125 44.09375 54.296875 
Q 44.09375 59.90625 40.109375 62.90625 
Q 36.140625 65.921875 28.71875 65.921875 
Q 24.65625 65.921875 20.015625 65.03125 
Q 15.375 64.15625 9.8125 62.3125 
L 9.8125 71.09375 
Q 15.4375 72.65625 20.34375 73.4375 
Q 25.25 74.21875 29.59375 74.21875 
Q 40.828125 74.21875 47.359375 69.109375 
Q 53.90625 64.015625 53.90625 55.328125 
Q 53.90625 49.265625 50.4375 45.09375 
Q 46.96875 40.921875 40.578125 39.3125 
z
" id="DejaVuSans-51"/>
       <path d="M 4.890625 31.390625 
L 31.203125 31.390625 
L 31.203125 23.390625 
L 4.890625 23.390625 
z
" id="DejaVuSans-45"/>
       <path d="M 8.203125 72.90625 
L 55.078125 72.90625 
L 55.078125 68.703125 
L 28.609375 0 
L 18.3125 0 
L 43.21875 64.59375 
L 8.203125 64.59375 
z
" id="DejaVuSans-55"/>
      </defs>
      <g transform="translate(39.322437 275.720813)rotate(-30)scale(0.1 -0.1)">
       <use xlink:href="#DejaVuSans-50"/>
       <use x="63.623047" xlink:href="#DejaVuSans-48"/>
       <use x="127.246094" xlink:href="#DejaVuSans-49"/>
       <use x="190.869141" xlink:href="#DejaVuSans-51"/>
       <use x="254.492188" xlink:href="#DejaVuSans-45"/>
       <use x="290.576172" xlink:href="#DejaVuSans-48"/>
       <use x="354.199219" xlink:href="#DejaVuSans-55"/>
      </g>
     </g>
    </g>
    <g id="xtick_2">
     <g id="line2d_2">
      <g>
       <use style="stroke:#000000;stroke-width:0.8;" x="114.04793" xlink:href="#mb5c23993e0" y="241.248967"/>
      </g>
     </g>
     <g id="text_2">
      <!-- 2014-01 -->
      <defs>
       <path d="M 37.796875 64.3125 
L 12.890625 25.390625 
L 37.796875 25.390625 
z
M 35.203125 72.90625 
L 47.609375 72.90625 
L 47.609375 25.390625 
L 58.015625 25.390625 
L 58.015625 17.1875 
L 47.609375 17.1875 
L 47.609375 0 
L 37.796875 0 
L 37.796875 17.1875 
L 4.890625 17.1875 
L 4.890625 26.703125 
z
" id="DejaVuSans-52"/>
      </defs>
      <g transform="translate(76.82311 275.720813)rotate(-30)scale(0.1 -0.1)">
       <use xlink:href="#DejaVuSans-50"/>
       <use x="63.623047" xlink:href="#DejaVuSans-48"/>
       <use x="127.246094" xlink:href="#DejaVuSans-49"/>
       <use x="190.869141" xlink:href="#DejaVuSans-52"/>
       <use x="254.492188" xlink:href="#DejaVuSans-45"/>
       <use x="290.576172" xlink:href="#DejaVuSans-48"/>
       <use x="354.199219" xlink:href="#DejaVuSans-49"/>
      </g>
     </g>
    </g>
    <g id="xtick_3">
     <g id="line2d_3">
      <g>
       <use style="stroke:#000000;stroke-width:0.8;" x="150.937179" xlink:href="#mb5c23993e0" y="241.248967"/>
      </g>
     </g>
     <g id="text_3">
      <!-- 2014-07 -->
      <g transform="translate(113.712358 275.720813)rotate(-30)scale(0.1 -0.1)">
       <use xlink:href="#DejaVuSans-50"/>
       <use x="63.623047" xlink:href="#DejaVuSans-48"/>
       <use x="127.246094" xlink:href="#DejaVuSans-49"/>
       <use x="190.869141" xlink:href="#DejaVuSans-52"/>
       <use x="254.492188" xlink:href="#DejaVuSans-45"/>
       <use x="290.576172" xlink:href="#DejaVuSans-48"/>
       <use x="354.199219" xlink:href="#DejaVuSans-55"/>
      </g>
     </g>
    </g>
    <g id="xtick_4">
     <g id="line2d_4">
      <g>
       <use style="stroke:#000000;stroke-width:0.8;" x="188.437852" xlink:href="#mb5c23993e0" y="241.248967"/>
      </g>
     </g>
     <g id="text_4">
      <!-- 2015-01 -->
      <defs>
       <path d="M 10.796875 72.90625 
L 49.515625 72.90625 
L 49.515625 64.59375 
L 19.828125 64.59375 
L 19.828125 46.734375 
Q 21.96875 47.46875 24.109375 47.828125 
Q 26.265625 48.1875 28.421875 48.1875 
Q 40.625 48.1875 47.75 41.5 
Q 54.890625 34.8125 54.890625 23.390625 
Q 54.890625 11.625 47.5625 5.09375 
Q 40.234375 -1.421875 26.90625 -1.421875 
Q 22.3125 -1.421875 17.546875 -0.640625 
Q 12.796875 0.140625 7.71875 1.703125 
L 7.71875 11.625 
Q 12.109375 9.234375 16.796875 8.0625 
Q 21.484375 6.890625 26.703125 6.890625 
Q 35.15625 6.890625 40.078125 11.328125 
Q 45.015625 15.765625 45.015625 23.390625 
Q 45.015625 31 40.078125 35.4375 
Q 35.15625 39.890625 26.703125 39.890625 
Q 22.75 39.890625 18.8125 39.015625 
Q 14.890625 38.140625 10.796875 36.28125 
z
" id="DejaVuSans-53"/>
      </defs>
      <g transform="translate(151.213031 275.720813)rotate(-30)scale(0.1 -0.1)">
       <use xlink:href="#DejaVuSans-50"/>
       <use x="63.623047" xlink:href="#DejaVuSans-48"/>
       <use x="127.246094" xlink:href="#DejaVuSans-49"/>
       <use x="190.869141" xlink:href="#DejaVuSans-53"/>
       <use x="254.492188" xlink:href="#DejaVuSans-45"/>
       <use x="290.576172" xlink:href="#DejaVuSans-48"/>
       <use x="354.199219" xlink:href="#DejaVuSans-49"/>
      </g>
     </g>
    </g>
    <g id="xtick_5">
     <g id="line2d_5">
      <g>
       <use style="stroke:#000000;stroke-width:0.8;" x="225.3271" xlink:href="#mb5c23993e0" y="241.248967"/>
      </g>
     </g>
     <g id="text_5">
      <!-- 2015-07 -->
      <g transform="translate(188.10228 275.720813)rotate(-30)scale(0.1 -0.1)">
       <use xlink:href="#DejaVuSans-50"/>
       <use x="63.623047" xlink:href="#DejaVuSans-48"/>
       <use x="127.246094" xlink:href="#DejaVuSans-49"/>
       <use x="190.869141" xlink:href="#DejaVuSans-53"/>
       <use x="254.492188" xlink:href="#DejaVuSans-45"/>
       <use x="290.576172" xlink:href="#DejaVuSans-48"/>
       <use x="354.199219" xlink:href="#DejaVuSans-55"/>
      </g>
     </g>
    </g>
    <g id="xtick_6">
     <g id="line2d_6">
      <g>
       <use style="stroke:#000000;stroke-width:0.8;" x="262.827773" xlink:href="#mb5c23993e0" y="241.248967"/>
      </g>
     </g>
     <g id="text_6">
      <!-- 2016-01 -->
      <defs>
       <path d="M 33.015625 40.375 
Q 26.375 40.375 22.484375 35.828125 
Q 18.609375 31.296875 18.609375 23.390625 
Q 18.609375 15.53125 22.484375 10.953125 
Q 26.375 6.390625 33.015625 6.390625 
Q 39.65625 6.390625 43.53125 10.953125 
Q 47.40625 15.53125 47.40625 23.390625 
Q 47.40625 31.296875 43.53125 35.828125 
Q 39.65625 40.375 33.015625 40.375 
z
M 52.59375 71.296875 
L 52.59375 62.3125 
Q 48.875 64.0625 45.09375 64.984375 
Q 41.3125 65.921875 37.59375 65.921875 
Q 27.828125 65.921875 22.671875 59.328125 
Q 17.53125 52.734375 16.796875 39.40625 
Q 19.671875 43.65625 24.015625 45.921875 
Q 28.375 48.1875 33.59375 48.1875 
Q 44.578125 48.1875 50.953125 41.515625 
Q 57.328125 34.859375 57.328125 23.390625 
Q 57.328125 12.15625 50.6875 5.359375 
Q 44.046875 -1.421875 33.015625 -1.421875 
Q 20.359375 -1.421875 13.671875 8.265625 
Q 6.984375 17.96875 6.984375 36.375 
Q 6.984375 53.65625 15.1875 63.9375 
Q 23.390625 74.21875 37.203125 74.21875 
Q 40.921875 74.21875 44.703125 73.484375 
Q 48.484375 72.75 52.59375 71.296875 
z
" id="DejaVuSans-54"/>
      </defs>
      <g transform="translate(225.602952 275.720813)rotate(-30)scale(0.1 -0.1)">
       <use xlink:href="#DejaVuSans-50"/>
       <use x="63.623047" xlink:href="#DejaVuSans-48"/>
       <use x="127.246094" xlink:href="#DejaVuSans-49"/>
       <use x="190.869141" xlink:href="#DejaVuSans-54"/>
       <use x="254.492188" xlink:href="#DejaVuSans-45"/>
       <use x="290.576172" xlink:href="#DejaVuSans-48"/>
       <use x="354.199219" xlink:href="#DejaVuSans-49"/>
      </g>
     </g>
    </g>
    <g id="xtick_7">
     <g id="line2d_7">
      <g>
       <use style="stroke:#000000;stroke-width:0.8;" x="299.92083" xlink:href="#mb5c23993e0" y="241.248967"/>
      </g>
     </g>
     <g id="text_7">
      <!-- 2016-07 -->
      <g transform="translate(262.696009 275.720813)rotate(-30)scale(0.1 -0.1)">
       <use xlink:href="#DejaVuSans-50"/>
       <use x="63.623047" xlink:href="#DejaVuSans-48"/>
       <use x="127.246094" xlink:href="#DejaVuSans-49"/>
       <use x="190.869141" xlink:href="#DejaVuSans-54"/>
       <use x="254.492188" xlink:href="#DejaVuSans-45"/>
       <use x="290.576172" xlink:href="#DejaVuSans-48"/>
       <use x="354.199219" xlink:href="#DejaVuSans-55"/>
      </g>
     </g>
    </g>
    <g id="xtick_8">
     <g id="line2d_8">
      <g>
       <use style="stroke:#000000;stroke-width:0.8;" x="337.421503" xlink:href="#mb5c23993e0" y="241.248967"/>
      </g>
     </g>
     <g id="text_8">
      <!-- 2017-01 -->
      <g transform="translate(300.196682 275.720813)rotate(-30)scale(0.1 -0.1)">
       <use xlink:href="#DejaVuSans-50"/>
       <use x="63.623047" xlink:href="#DejaVuSans-48"/>
       <use x="127.246094" xlink:href="#DejaVuSans-49"/>
       <use x="190.869141" xlink:href="#DejaVuSans-55"/>
       <use x="254.492188" xlink:href="#DejaVuSans-45"/>
       <use x="290.576172" xlink:href="#DejaVuSans-48"/>
       <use x="354.199219" xlink:href="#DejaVuSans-49"/>
      </g>
     </g>
    </g>
    <g id="xtick_9">
     <g id="line2d_9">
      <g>
       <use style="stroke:#000000;stroke-width:0.8;" x="374.310751" xlink:href="#mb5c23993e0" y="241.248967"/>
      </g>
     </g>
     <g id="text_9">
      <!-- 2017-07 -->
      <g transform="translate(337.08593 275.720813)rotate(-30)scale(0.1 -0.1)">
       <use xlink:href="#DejaVuSans-50"/>
       <use x="63.623047" xlink:href="#DejaVuSans-48"/>
       <use x="127.246094" xlink:href="#DejaVuSans-49"/>
       <use x="190.869141" xlink:href="#DejaVuSans-55"/>
       <use x="254.492188" xlink:href="#DejaVuSans-45"/>
       <use x="290.576172" xlink:href="#DejaVuSans-48"/>
       <use x="354.199219" xlink:href="#DejaVuSans-55"/>
      </g>
     </g>
    </g>
    <g id="text_10">
     <!-- Date -->
     <defs>
      <path d="M 19.671875 64.796875 
L 19.671875 8.109375 
L 31.59375 8.109375 
Q 46.6875 8.109375 53.6875 14.9375 
Q 60.6875 21.78125 60.6875 36.53125 
Q 60.6875 51.171875 53.6875 57.984375 
Q 46.6875 64.796875 31.59375 64.796875 
z
M 9.8125 72.90625 
L 30.078125 72.90625 
Q 51.265625 72.90625 61.171875 64.09375 
Q 71.09375 55.28125 71.09375 36.53125 
Q 71.09375 17.671875 61.125 8.828125 
Q 51.171875 0 30.078125 0 
L 9.8125 0 
z
" id="DejaVuSans-68"/>
      <path d="M 34.28125 27.484375 
Q 23.390625 27.484375 19.1875 25 
Q 14.984375 22.515625 14.984375 16.5 
Q 14.984375 11.71875 18.140625 8.90625 
Q 21.296875 6.109375 26.703125 6.109375 
Q 34.1875 6.109375 38.703125 11.40625 
Q 43.21875 16.703125 43.21875 25.484375 
L 43.21875 27.484375 
z
M 52.203125 31.203125 
L 52.203125 0 
L 43.21875 0 
L 43.21875 8.296875 
Q 40.140625 3.328125 35.546875 0.953125 
Q 30.953125 -1.421875 24.3125 -1.421875 
Q 15.921875 -1.421875 10.953125 3.296875 
Q 6 8.015625 6 15.921875 
Q 6 25.140625 12.171875 29.828125 
Q 18.359375 34.515625 30.609375 34.515625 
L 43.21875 34.515625 
L 43.21875 35.40625 
Q 43.21875 41.609375 39.140625 45 
Q 35.0625 48.390625 27.6875 48.390625 
Q 23 48.390625 18.546875 47.265625 
Q 14.109375 46.140625 10.015625 43.890625 
L 10.015625 52.203125 
Q 14.9375 54.109375 19.578125 55.046875 
Q 24.21875 56 28.609375 56 
Q 40.484375 56 46.34375 49.84375 
Q 52.203125 43.703125 52.203125 31.203125 
z
" id="DejaVuSans-97"/>
      <path d="M 18.3125 70.21875 
L 18.3125 54.6875 
L 36.8125 54.6875 
L 36.8125 47.703125 
L 18.3125 47.703125 
L 18.3125 18.015625 
Q 18.3125 11.328125 20.140625 9.421875 
Q 21.96875 7.515625 27.59375 7.515625 
L 36.8125 7.515625 
L 36.8125 0 
L 27.59375 0 
Q 17.1875 0 13.234375 3.875 
Q 9.28125 7.765625 9.28125 18.015625 
L 9.28125 47.703125 
L 2.6875 47.703125 
L 2.6875 54.6875 
L 9.28125 54.6875 
L 9.28125 70.21875 
z
" id="DejaVuSans-116"/>
      <path d="M 56.203125 29.59375 
L 56.203125 25.203125 
L 14.890625 25.203125 
Q 15.484375 15.921875 20.484375 11.0625 
Q 25.484375 6.203125 34.421875 6.203125 
Q 39.59375 6.203125 44.453125 7.46875 
Q 49.3125 8.734375 54.109375 11.28125 
L 54.109375 2.78125 
Q 49.265625 0.734375 44.1875 -0.34375 
Q 39.109375 -1.421875 33.890625 -1.421875 
Q 20.796875 -1.421875 13.15625 6.1875 
Q 5.515625 13.8125 5.515625 26.8125 
Q 5.515625 40.234375 12.765625 48.109375 
Q 20.015625 56 32.328125 56 
Q 43.359375 56 49.78125 48.890625 
Q 56.203125 41.796875 56.203125 29.59375 
z
M 47.21875 32.234375 
Q 47.125 39.59375 43.09375 43.984375 
Q 39.0625 48.390625 32.421875 48.390625 
Q 24.90625 48.390625 20.390625 44.140625 
Q 15.875 39.890625 15.1875 32.171875 
z
" id="DejaVuSans-101"/>
     </defs>
     <g transform="translate(213.682031 289.120313)scale(0.1 -0.1)">
      <use xlink:href="#DejaVuSans-68"/>
      <use x="77.001953" xlink:href="#DejaVuSans-97"/>
      <use x="138.28125" xlink:href="#DejaVuSans-116"/>
      <use x="177.490234" xlink:href="#DejaVuSans-101"/>
     </g>
    </g>
   </g>
   <g id="matplotlib.axis_2">
    <g id="ytick_1">
     <g id="line2d_10">
      <defs>
       <path d="M 0 0 
L -3.5 0 
" id="ma3d41059a5" style="stroke:#000000;stroke-width:0.8;"/>
      </defs>
      <g>
       <use style="stroke:#000000;stroke-width:0.8;" x="40.065625" xlink:href="#ma3d41059a5" y="230.127529"/>
      </g>
     </g>
     <g id="text_11">
      <!-- 0.00 -->
      <defs>
       <path d="M 10.6875 12.40625 
L 21 12.40625 
L 21 0 
L 10.6875 0 
z
" id="DejaVuSans-46"/>
      </defs>
      <g transform="translate(10.8 233.926748)scale(0.1 -0.1)">
       <use xlink:href="#DejaVuSans-48"/>
       <use x="63.623047" xlink:href="#DejaVuSans-46"/>
       <use x="95.410156" xlink:href="#DejaVuSans-48"/>
       <use x="159.033203" xlink:href="#DejaVuSans-48"/>
      </g>
     </g>
    </g>
    <g id="ytick_2">
     <g id="line2d_11">
      <g>
       <use style="stroke:#000000;stroke-width:0.8;" x="40.065625" xlink:href="#ma3d41059a5" y="198.379274"/>
      </g>
     </g>
     <g id="text_12">
      <!-- 0.25 -->
      <g transform="translate(10.8 202.178493)scale(0.1 -0.1)">
       <use xlink:href="#DejaVuSans-48"/>
       <use x="63.623047" xlink:href="#DejaVuSans-46"/>
       <use x="95.410156" xlink:href="#DejaVuSans-50"/>
       <use x="159.033203" xlink:href="#DejaVuSans-53"/>
      </g>
     </g>
    </g>
    <g id="ytick_3">
     <g id="line2d_12">
      <g>
       <use style="stroke:#000000;stroke-width:0.8;" x="40.065625" xlink:href="#ma3d41059a5" y="166.631018"/>
      </g>
     </g>
     <g id="text_13">
      <!-- 0.50 -->
      <g transform="translate(10.8 170.430237)scale(0.1 -0.1)">
       <use xlink:href="#DejaVuSans-48"/>
       <use x="63.623047" xlink:href="#DejaVuSans-46"/>
       <use x="95.410156" xlink:href="#DejaVuSans-53"/>
       <use x="159.033203" xlink:href="#DejaVuSans-48"/>
      </g>
     </g>
    </g>
    <g id="ytick_4">
     <g id="line2d_13">
      <g>
       <use style="stroke:#000000;stroke-width:0.8;" x="40.065625" xlink:href="#ma3d41059a5" y="134.882763"/>
      </g>
     </g>
     <g id="text_14">
      <!-- 0.75 -->
      <g transform="translate(10.8 138.681982)scale(0.1 -0.1)">
       <use xlink:href="#DejaVuSans-48"/>
       <use x="63.623047" xlink:href="#DejaVuSans-46"/>
       <use x="95.410156" xlink:href="#DejaVuSans-55"/>
       <use x="159.033203" xlink:href="#DejaVuSans-53"/>
      </g>
     </g>
    </g>
    <g id="ytick_5">
     <g id="line2d_14">
      <g>
       <use style="stroke:#000000;stroke-width:0.8;" x="40.065625" xlink:href="#ma3d41059a5" y="103.134507"/>
      </g>
     </g>
     <g id="text_15">
      <!-- 1.00 -->
      <g transform="translate(10.8 106.933726)scale(0.1 -0.1)">
       <use xlink:href="#DejaVuSans-49"/>
       <use x="63.623047" xlink:href="#DejaVuSans-46"/>
       <use x="95.410156" xlink:href="#DejaVuSans-48"/>
       <use x="159.033203" xlink:href="#DejaVuSans-48"/>
      </g>
     </g>
    </g>
    <g id="ytick_6">
     <g id="line2d_15">
      <g>
       <use style="stroke:#000000;stroke-width:0.8;" x="40.065625" xlink:href="#ma3d41059a5" y="71.386252"/>
      </g>
     </g>
     <g id="text_16">
      <!-- 1.25 -->
      <g transform="translate(10.8 75.185471)scale(0.1 -0.1)">
       <use xlink:href="#DejaVuSans-49"/>
       <use x="63.623047" xlink:href="#DejaVuSans-46"/>
       <use x="95.410156" xlink:href="#DejaVuSans-50"/>
       <use x="159.033203" xlink:href="#DejaVuSans-53"/>
      </g>
     </g>
    </g>
    <g id="ytick_7">
     <g id="line2d_16">
      <g>
       <use style="stroke:#000000;stroke-width:0.8;" x="40.065625" xlink:href="#ma3d41059a5" y="39.637996"/>
      </g>
     </g>
     <g id="text_17">
      <!-- 1.50 -->
      <g transform="translate(10.8 43.437215)scale(0.1 -0.1)">
       <use xlink:href="#DejaVuSans-49"/>
       <use x="63.623047" xlink:href="#DejaVuSans-46"/>
       <use x="95.410156" xlink:href="#DejaVuSans-53"/>
       <use x="159.033203" xlink:href="#DejaVuSans-48"/>
      </g>
     </g>
    </g>
   </g>
   <g id="line2d_17">
    <path clip-path="url(#p731481a725)" d="M 40.065625 230.770839 
L 40.269433 230.262434 
L 40.880857 229.701602 
L 41.084665 230.295271 
L 41.288473 229.707264 
L 41.696089 228.240049 
L 42.307513 228.96535 
L 42.511321 229.633797 
L 42.715129 229.4947 
L 43.122745 228.556189 
L 43.937977 228.067002 
L 44.141785 227.70169 
L 44.345593 228.804488 
L 44.549401 227.520186 
L 45.160825 227.289787 
L 45.364633 227.895132 
L 45.568441 227.612366 
L 45.772249 228.370825 
L 45.976057 227.964497 
L 46.587481 230.143775 
L 46.791289 228.256858 
L 46.995097 228.337016 
L 47.198905 228.083834 
L 47.402713 227.419838 
L 48.014137 227.621169 
L 48.217945 227.861171 
L 48.421753 226.614242 
L 48.625561 226.203691 
L 48.829369 226.841136 
L 49.644601 225.248592 
L 50.052217 227.806666 
L 50.256025 227.144355 
L 50.867449 229.116682 
L 51.071257 228.477516 
L 51.275065 227.324602 
L 51.478873 227.383029 
L 51.682681 227.190643 
L 52.294105 226.856884 
L 52.497913 225.689466 
L 52.701721 226.115285 
L 52.905529 225.166733 
L 53.109337 225.328337 
L 53.720761 225.215577 
L 54.128377 225.991383 
L 54.332185 225.586061 
L 54.535993 226.351039 
L 55.555033 227.028262 
L 55.758841 227.902666 
L 55.962649 226.695321 
L 56.574073 227.352786 
L 56.981689 226.214059 
L 57.185497 226.696094 
L 58.000729 226.953607 
L 58.204537 226.268528 
L 58.408345 226.957195 
L 58.612153 226.098863 
L 58.815961 226.344226 
L 59.427385 226.27439 
L 59.631193 225.599587 
L 59.835001 223.491093 
L 60.038809 223.35817 
L 60.242617 223.868281 
L 60.854041 226.5997 
L 61.057849 225.091277 
L 61.465465 228.691714 
L 61.669273 228.022518 
L 62.280697 226.797037 
L 62.484505 225.5764 
L 62.688313 225.394802 
L 62.892121 224.773609 
L 63.095929 225.175836 
L 63.707353 224.295668 
L 63.911161 222.793015 
L 64.114969 224.374642 
L 64.318777 222.396019 
L 64.522585 221.85255 
L 65.134009 221.901333 
L 65.337817 221.631085 
L 65.541625 220.809541 
L 65.949241 221.146505 
L 66.560665 220.750946 
L 66.764474 219.677522 
L 66.968282 219.737497 
L 67.17209 220.039867 
L 67.375898 218.494068 
L 68.19113 218.279759 
L 68.802554 219.955257 
L 69.617786 219.201076 
L 69.821594 220.198703 
L 70.025402 218.902722 
L 70.22921 220.291992 
L 70.840634 219.92353 
L 71.044442 220.580173 
L 71.24825 222.071235 
L 71.452058 221.492215 
L 71.655866 219.693604 
L 72.26729 218.773659 
L 72.674906 221.236994 
L 72.878714 219.859122 
L 73.082522 221.055201 
L 73.693946 219.663019 
L 73.897754 218.546864 
L 74.101562 220.360066 
L 74.30537 223.341976 
L 74.509178 223.020157 
L 75.120602 224.212659 
L 75.732026 221.295139 
L 75.935834 221.46211 
L 76.547258 220.765215 
L 76.751066 220.703676 
L 76.954874 220.422883 
L 77.36249 219.451915 
L 77.973914 218.44047 
L 78.177722 217.137547 
L 78.38153 216.985788 
L 78.585338 215.188017 
L 78.789146 214.864626 
L 79.40057 214.610876 
L 79.808186 214.139325 
L 80.011994 214.291868 
L 80.215802 215.275281 
L 80.827226 214.852971 
L 81.031034 215.172527 
L 81.234842 214.468945 
L 81.43865 209.825755 
L 81.642458 209.392475 
L 82.253882 208.953754 
L 82.45769 208.134632 
L 82.661498 208.575713 
L 83.069114 206.940882 
L 83.680538 206.920797 
L 83.884346 207.852506 
L 84.088154 207.719122 
L 84.291962 207.109947 
L 84.49577 208.009159 
L 85.107194 207.880657 
L 85.311002 207.963417 
L 85.51481 208.516253 
L 85.718618 210.003872 
L 85.922426 209.909443 
L 86.53385 210.268684 
L 86.737658 210.123493 
L 86.941466 210.93201 
L 87.145274 209.648916 
L 87.349082 207.136798 
L 87.960506 208.014301 
L 88.164314 210.964655 
L 88.57193 209.744279 
L 88.775738 210.132672 
L 89.59097 210.255112 
L 89.794778 209.30255 
L 89.998586 209.203804 
L 90.202394 208.372393 
L 90.813818 206.996353 
L 91.017626 206.21253 
L 91.221434 206.076847 
L 91.62905 206.85327 
L 92.240474 207.596121 
L 92.64809 203.738827 
L 92.851898 203.462137 
L 93.055706 204.011091 
L 93.66713 204.131438 
L 93.870938 204.392105 
L 94.074746 204.228919 
L 94.278554 203.160297 
L 94.482362 203.097108 
L 95.093786 204.376383 
L 95.297594 202.756216 
L 95.501402 202.394095 
L 95.70521 203.944667 
L 95.909018 202.506612 
L 96.520442 203.743585 
L 96.72425 206.645505 
L 96.928058 206.612581 
L 97.131866 203.163649 
L 97.335674 201.8899 
L 97.947098 201.378418 
L 98.150906 202.017495 
L 98.76233 195.971611 
L 99.373754 195.20552 
L 99.577562 195.431886 
L 99.78137 196.87334 
L 99.985178 196.213011 
L 100.188986 193.63446 
L 100.80041 194.017839 
L 101.004218 193.816418 
L 101.411834 193.747013 
L 101.615642 193.366399 
L 102.227066 193.231295 
L 102.430874 192.763011 
L 102.634682 191.061799 
L 102.83849 193.854546 
L 103.042298 191.521195 
L 103.653722 191.928325 
L 103.85753 192.237928 
L 104.265146 189.478558 
L 104.468954 188.62947 
L 105.080378 190.121306 
L 105.284186 189.853237 
L 105.487994 190.25512 
L 105.691802 189.146443 
L 105.89561 188.663055 
L 106.507034 188.955515 
L 106.710842 188.514798 
L 106.91465 187.344573 
L 107.322266 186.620588 
L 108.137498 187.119503 
L 108.341306 185.947018 
L 108.545114 187.516685 
L 108.748922 186.448541 
L 109.564154 185.197819 
L 109.767962 187.550773 
L 110.787002 185.300682 
L 110.99081 185.880207 
L 111.194618 183.290853 
L 111.398426 183.935323 
L 112.213658 181.141677 
L 112.825082 179.719483 
L 113.02889 180.951517 
L 113.640314 182.241223 
L 113.844122 181.067029 
L 114.455546 182.845418 
L 115.06697 182.1727 
L 115.270778 181.219647 
L 115.474586 181.254571 
L 115.678394 182.513577 
L 115.882202 182.360851 
L 116.493626 184.879297 
L 116.901242 180.895091 
L 117.10505 181.2456 
L 117.308858 182.866952 
L 118.12409 182.16202 
L 118.531706 184.291792 
L 118.735514 187.763047 
L 119.346938 188.368319 
L 119.550746 187.992954 
L 119.754555 189.810435 
L 119.958363 185.972311 
L 120.162171 188.162379 
L 120.773595 192.284652 
L 120.977403 190.983156 
L 121.181211 191.469036 
L 121.588827 186.592299 
L 122.200251 186.354329 
L 122.404059 183.984546 
L 122.607867 184.685082 
L 122.811675 182.386815 
L 123.015483 181.775359 
L 123.830715 182.083084 
L 124.034523 183.185961 
L 124.238331 182.001302 
L 124.442139 183.022537 
L 125.053563 181.76961 
L 125.461179 183.075607 
L 125.664987 182.225601 
L 125.868795 181.986619 
L 126.480219 183.415678 
L 126.684027 180.822779 
L 126.887835 179.889739 
L 127.091643 179.485683 
L 127.906875 178.842638 
L 128.110683 180.082806 
L 128.314491 179.659487 
L 128.722107 182.24792 
L 129.333531 180.466545 
L 129.537339 178.725014 
L 129.741147 179.927613 
L 129.944955 178.513683 
L 130.148763 178.240791 
L 130.760187 178.932167 
L 130.963995 177.552662 
L 131.167803 180.609021 
L 131.371611 180.283297 
L 131.575419 179.670961 
L 132.186843 178.990655 
L 132.390651 177.495826 
L 132.594459 177.067128 
L 132.798267 178.533867 
L 133.002075 181.4524 
L 133.613499 182.687174 
L 133.817307 181.512331 
L 134.021115 178.98931 
L 134.224923 183.082198 
L 134.428731 184.555557 
L 135.040155 183.658984 
L 135.243963 182.669211 
L 135.447771 180.864548 
L 135.651579 180.59233 
L 136.466811 178.997375 
L 136.670619 178.141946 
L 136.874427 180.115449 
L 137.078235 178.118812 
L 137.282043 180.974169 
L 137.893467 179.899282 
L 138.301083 177.663809 
L 138.504891 177.703719 
L 138.708699 178.251384 
L 139.320123 177.893925 
L 139.523931 180.896419 
L 140.135355 179.71433 
L 140.950587 176.562923 
L 141.154395 177.464982 
L 141.358203 179.247166 
L 141.562011 178.570753 
L 142.173435 178.039337 
L 142.377243 178.862183 
L 142.581051 176.9657 
L 142.784859 176.818429 
L 142.988667 175.898657 
L 143.803899 174.696785 
L 144.007707 174.778588 
L 144.211515 173.580645 
L 144.415323 173.581005 
L 145.230555 174.218233 
L 145.434363 174.112889 
L 145.638171 171.764484 
L 145.841979 170.923586 
L 146.453403 170.360525 
L 146.657211 168.78039 
L 146.861019 169.375212 
L 147.064827 171.354386 
L 147.268635 170.778665 
L 148.083867 170.608573 
L 148.287675 169.163805 
L 148.491483 169.860724 
L 148.695291 169.441861 
L 149.306715 168.813172 
L 149.510523 169.921476 
L 149.714331 168.998528 
L 149.918139 169.433559 
L 150.121947 168.893799 
L 150.733371 169.331142 
L 150.937179 167.702 
L 151.140987 168.06227 
L 151.344795 167.295954 
L 152.160027 167.227849 
L 152.363835 169.65356 
L 152.567643 168.250687 
L 152.771451 168.964953 
L 152.975259 166.988384 
L 153.586683 165.053513 
L 153.790491 164.977598 
L 153.994299 163.352596 
L 154.198107 165.702202 
L 154.401915 163.812064 
L 155.013339 164.027206 
L 155.420955 162.169513 
L 155.624763 161.416014 
L 155.828571 163.66932 
L 156.439995 163.73092 
L 156.643803 164.234467 
L 156.847611 163.852462 
L 157.051419 168.512435 
L 157.255227 169.510911 
L 157.866651 168.192771 
L 158.070459 169.868903 
L 158.274267 169.553752 
L 158.478075 169.904896 
L 158.681883 168.536865 
L 159.293307 168.002614 
L 159.497115 168.153535 
L 159.904731 165.086305 
L 160.108539 165.474749 
L 161.331387 162.407213 
L 161.535195 162.939154 
L 162.146619 162.151422 
L 162.350427 161.366902 
L 162.554235 161.329083 
L 162.758043 162.03476 
L 162.961851 161.138045 
L 163.777083 160.768374 
L 163.980891 161.810771 
L 164.184699 161.520687 
L 164.388507 159.977544 
L 164.999931 160.440001 
L 165.203739 162.341412 
L 165.407547 161.076758 
L 165.611355 160.515268 
L 165.815163 161.205998 
L 166.426587 162.44706 
L 166.630395 160.756336 
L 166.834203 160.666963 
L 167.241819 158.262777 
L 167.853243 159.60897 
L 168.057051 159.521527 
L 168.260859 158.632967 
L 168.464667 162.479932 
L 168.668475 160.534832 
L 169.279899 161.331167 
L 169.483707 161.109089 
L 169.687515 164.164531 
L 169.891323 164.071944 
L 170.095131 162.16805 
L 170.706555 162.204949 
L 170.910363 164.913561 
L 171.114171 161.387553 
L 171.521787 168.272047 
L 172.540827 171.833193 
L 172.744636 173.249503 
L 172.948444 169.832592 
L 173.559868 168.031938 
L 173.763676 164.25977 
L 173.967484 165.043384 
L 174.171292 163.444565 
L 174.3751 163.712125 
L 174.986524 163.689528 
L 175.190332 161.264837 
L 175.39414 162.734289 
L 175.597948 162.820787 
L 175.801756 160.089145 
L 176.616988 160.167171 
L 176.820796 160.026103 
L 177.228412 158.057981 
L 178.247452 157.053716 
L 178.45126 156.322406 
L 178.655068 154.929 
L 179.266492 155.372535 
L 179.4703 154.743339 
L 179.674108 155.441432 
L 180.081724 154.465293 
L 180.693148 154.577563 
L 180.896956 154.918763 
L 181.100764 153.766621 
L 181.50838 154.33403 
L 182.119804 156.537418 
L 182.323612 156.087487 
L 182.52742 156.572648 
L 182.731228 156.698672 
L 182.935036 156.458092 
L 183.54646 158.500323 
L 183.750268 158.688907 
L 183.954076 162.270518 
L 184.157884 161.003701 
L 184.361692 163.756235 
L 184.973116 165.033338 
L 185.176924 168.210747 
L 185.788348 158.587019 
L 186.399772 156.827413 
L 186.60358 156.688814 
L 186.807388 157.342363 
L 187.215004 156.539206 
L 187.826428 156.690379 
L 188.030236 157.581434 
L 188.234044 159.685241 
L 188.64166 159.566353 
L 189.253084 163.235176 
L 189.456892 165.542489 
L 189.6607 163.995289 
L 189.864508 160.343498 
L 190.068316 161.963006 
L 190.67974 164.120227 
L 190.883548 164.01579 
L 191.087356 165.569733 
L 191.291164 168.850092 
L 191.494972 166.537157 
L 192.310204 166.041761 
L 192.514012 164.804008 
L 192.71782 161.138113 
L 192.921628 162.033951 
L 193.533052 162.141764 
L 193.73686 166.460744 
L 193.940668 167.985731 
L 194.144476 165.041064 
L 194.348284 165.011608 
L 194.959708 162.135835 
L 195.163516 159.68008 
L 195.367324 160.03403 
L 195.571132 158.019995 
L 196.386364 158.652624 
L 196.590172 157.293772 
L 196.79398 156.746579 
L 197.201596 153.875898 
L 198.016828 153.830749 
L 198.220636 154.440573 
L 198.424444 153.913233 
L 198.628252 152.556645 
L 199.239676 152.910787 
L 199.647292 151.220916 
L 199.8511 150.226628 
L 200.054908 151.44713 
L 200.666332 150.392711 
L 201.073948 152.027193 
L 201.277756 151.812333 
L 201.481564 154.906132 
L 202.092988 154.468491 
L 202.296796 158.291348 
L 202.500604 159.221064 
L 202.704412 157.138879 
L 202.90822 158.489851 
L 203.519644 156.463605 
L 203.723452 156.486615 
L 203.92726 153.492745 
L 204.131068 154.498272 
L 204.334876 153.387611 
L 204.9463 152.955244 
L 205.150108 153.891965 
L 205.353916 157.275805 
L 205.761532 157.795227 
L 206.372956 155.310636 
L 206.576764 157.241152 
L 206.780572 157.854876 
L 207.799612 155.25973 
L 208.207228 155.563336 
L 208.411036 154.007158 
L 208.614844 150.885117 
L 209.226268 151.545578 
L 209.633884 149.907701 
L 209.837692 150.697997 
L 210.0415 153.098272 
L 210.652924 149.98711 
L 210.856732 150.883537 
L 211.06054 149.386407 
L 211.264348 148.716764 
L 211.468156 143.436139 
L 212.07958 143.241469 
L 212.283388 142.75225 
L 212.487196 143.049279 
L 212.691004 145.456525 
L 212.894812 143.806922 
L 213.506236 143.525871 
L 213.913852 147.614524 
L 214.11766 146.365552 
L 214.321468 143.342394 
L 215.1367 145.251136 
L 215.340508 144.73801 
L 215.544316 141.530245 
L 215.748124 142.226268 
L 216.359548 141.281282 
L 216.563356 141.568774 
L 216.767164 141.277934 
L 216.970972 140.33032 
L 217.17478 141.378198 
L 217.990012 143.428563 
L 218.19382 141.30295 
L 218.397628 141.919145 
L 218.601436 143.481299 
L 219.21286 142.880123 
L 219.416668 143.076331 
L 219.620476 141.326365 
L 219.824284 142.765636 
L 220.028092 143.386755 
L 220.639516 144.579189 
L 220.843324 144.469396 
L 221.047132 141.851415 
L 221.25094 141.815562 
L 221.454748 143.449799 
L 222.066172 145.036726 
L 222.26998 143.628331 
L 222.473788 143.211515 
L 222.677596 140.480303 
L 222.881404 141.977588 
L 223.492828 140.453135 
L 223.696636 138.417079 
L 224.104252 139.892741 
L 224.30806 140.125813 
L 224.919484 144.100499 
L 225.123292 143.797248 
L 225.3271 142.53296 
L 225.530908 142.23067 
L 226.346141 143.138945 
L 226.549949 142.96164 
L 226.753757 146.283643 
L 226.957565 146.157622 
L 227.161373 143.243461 
L 227.976605 138.911357 
L 228.180413 138.872977 
L 228.588029 134.834258 
L 229.199453 133.516602 
L 229.403261 134.053203 
L 229.810877 137.749756 
L 230.014685 136.280673 
L 230.626109 138.080608 
L 231.237533 134.406488 
L 231.441341 136.343418 
L 232.052765 137.556668 
L 232.256573 138.50713 
L 232.460381 137.026094 
L 232.867997 139.815676 
L 233.479421 136.653062 
L 233.683229 139.559033 
L 233.887037 139.255195 
L 234.090845 139.504749 
L 234.294653 138.296749 
L 234.906077 137.134287 
L 235.109885 137.21019 
L 235.313693 138.992462 
L 235.517501 144.018862 
L 235.721309 152.140528 
L 236.536541 161.886581 
L 236.944157 146.306206 
L 237.147965 146.17406 
L 237.759389 147.772102 
L 237.963197 154.938052 
L 238.167005 149.756548 
L 238.370813 150.655644 
L 238.574621 153.570324 
L 239.389853 148.201918 
L 239.593661 150.767671 
L 240.001277 147.875236 
L 240.612701 148.496682 
L 241.020317 144.129613 
L 241.224125 144.800512 
L 241.427933 147.478414 
L 242.039357 145.508059 
L 242.243165 147.632823 
L 242.446973 147.636788 
L 242.854589 148.318697 
L 243.669821 153.218791 
L 243.873629 149.075269 
L 244.077437 148.401735 
L 244.281245 145.890726 
L 244.892669 141.500151 
L 245.096477 141.561931 
L 245.300285 140.095719 
L 245.707901 139.187267 
L 246.319325 138.403439 
L 246.523133 139.00727 
L 246.726941 140.390896 
L 247.134557 133.51692 
L 247.745981 133.710665 
L 247.949789 134.190539 
L 248.153597 135.097781 
L 248.561213 124.840721 
L 249.172637 124.835556 
L 249.376445 125.686468 
L 249.580253 122.802851 
L 249.784061 122.101732 
L 249.987869 124.143868 
L 251.414525 116.775762 
L 252.025949 119.243299 
L 252.229757 119.18102 
L 252.433565 118.116793 
L 252.841181 125.019701 
L 253.452605 121.606818 
L 253.656413 122.084135 
L 253.860221 117.876723 
L 254.064029 118.221039 
L 254.267837 117.077811 
L 255.083069 117.35321 
L 255.286877 118.142282 
L 255.694493 117.826171 
L 256.305917 118.783033 
L 256.509725 116.255337 
L 256.917341 121.346986 
L 257.121149 116.20198 
L 257.732573 117.607829 
L 258.140189 120.806571 
L 258.343997 119.994617 
L 258.547805 125.017528 
L 259.159229 122.184583 
L 259.363037 119.984968 
L 259.566845 116.294702 
L 259.974461 123.420594 
L 260.585885 121.729477 
L 260.789693 120.572805 
L 260.993501 118.050131 
L 261.197309 118.673009 
L 262.012541 118.386542 
L 262.216349 115.473541 
L 262.623965 119.867267 
L 263.439197 124.250282 
L 263.643005 124.202119 
L 263.846813 126.334981 
L 264.050621 133.81373 
L 264.254429 135.537502 
L 264.865853 134.775637 
L 265.069661 132.967142 
L 265.273469 137.894729 
L 265.477277 132.388596 
L 265.681085 137.985369 
L 266.496317 137.935692 
L 266.700125 141.093353 
L 266.903933 140.07738 
L 267.107741 134.193388 
L 267.719165 136.905387 
L 267.922973 133.061329 
L 268.126781 137.081089 
L 268.534397 125.519896 
L 269.145821 126.942743 
L 269.349629 131.418738 
L 269.757245 129.1945 
L 269.961053 135.184664 
L 270.776285 137.889793 
L 270.980093 137.782753 
L 271.183901 138.942512 
L 271.387709 134.91913 
L 272.202941 131.974959 
L 272.406749 128.559125 
L 272.610557 129.829092 
L 272.814365 129.476818 
L 273.425789 126.082574 
L 273.629597 129.936704 
L 273.833405 128.746668 
L 274.037213 126.358101 
L 274.241021 126.747041 
L 274.852445 128.917824 
L 275.056253 122.065079 
L 275.260061 120.609178 
L 275.667677 120.809473 
L 276.279101 122.117051 
L 276.482909 123.507514 
L 276.686717 122.389987 
L 276.890525 122.928541 
L 277.094333 120.286987 
L 277.705757 120.00883 
L 278.113373 117.735442 
L 278.317181 117.499614 
L 278.520989 117.696746 
L 279.132414 117.180076 
L 279.743838 115.476918 
L 280.55907 115.440622 
L 280.762878 112.581584 
L 280.966686 111.537302 
L 281.170494 112.855332 
L 281.374302 111.372768 
L 281.985726 112.800823 
L 282.189534 114.88904 
L 282.393342 112.676032 
L 282.59715 115.395052 
L 283.412382 115.678351 
L 283.819998 110.705922 
L 284.023806 109.642797 
L 284.227614 110.448122 
L 284.839038 109.251145 
L 285.246654 107.395166 
L 285.450462 108.486044 
L 285.65427 111.411289 
L 286.265694 111.40021 
L 286.877118 114.22259 
L 287.080926 111.928218 
L 287.69235 109.358908 
L 288.099966 112.576991 
L 288.303774 113.400415 
L 288.507582 111.657397 
L 289.119006 111.866769 
L 289.322814 108.035772 
L 289.526622 108.641247 
L 289.73043 108.433678 
L 289.934238 110.446531 
L 290.545662 108.172332 
L 290.74947 110.220192 
L 290.953278 109.196509 
L 291.157086 110.185967 
L 291.360894 109.152548 
L 291.972318 110.025237 
L 292.379934 104.904558 
L 292.78755 103.970343 
L 293.602782 103.711827 
L 293.80659 104.464455 
L 294.010398 104.215772 
L 294.214206 105.059863 
L 295.233246 102.513307 
L 295.437054 102.321784 
L 295.640862 104.102408 
L 296.252286 106.413631 
L 296.456094 105.944458 
L 296.659902 106.619255 
L 296.86371 105.144652 
L 297.067518 106.970984 
L 297.678942 106.024531 
L 297.88275 104.246799 
L 298.086558 104.920249 
L 298.290366 101.732219 
L 298.494174 109.944702 
L 299.105598 113.161391 
L 299.513214 104.150664 
L 299.717022 100.829444 
L 299.92083 100.347045 
L 300.736062 101.441795 
L 300.93987 99.038291 
L 301.143678 99.813485 
L 301.347486 96.980792 
L 301.95891 95.992823 
L 302.162718 94.983434 
L 302.366526 95.291942 
L 302.570334 93.647334 
L 302.774142 93.663463 
L 303.589374 92.406513 
L 303.793182 90.605829 
L 303.99699 91.627902 
L 304.200798 91.22316 
L 304.812222 92.773169 
L 305.01603 93.79204 
L 305.219838 91.740551 
L 305.423646 90.858441 
L 305.627454 90.552863 
L 306.238878 90.778331 
L 306.442686 91.684248 
L 306.850302 89.996596 
L 307.05411 87.780655 
L 307.665534 87.481646 
L 307.869342 87.25412 
L 308.07315 88.35932 
L 308.276958 87.686487 
L 308.480766 87.686257 
L 309.09219 87.85738 
L 309.295998 89.605041 
L 309.499806 88.893327 
L 309.703614 89.069044 
L 309.907422 90.208563 
L 310.518846 90.350843 
L 310.722654 90.132441 
L 310.926462 90.733421 
L 311.334078 90.355231 
L 311.945502 88.793691 
L 312.353118 89.842132 
L 312.556926 89.804892 
L 312.760734 88.874756 
L 313.575966 87.068893 
L 313.779774 86.953322 
L 313.983582 87.85143 
L 314.18739 94.09686 
L 314.798814 90.537664 
L 315.002622 93.330919 
L 315.20643 92.712355 
L 315.410238 89.606178 
L 315.614046 90.315872 
L 316.22547 91.458701 
L 316.429278 91.424867 
L 316.836894 87.003916 
L 317.040702 88.440203 
L 317.652126 90.568199 
L 318.059742 85.805547 
L 318.26355 88.483576 
L 318.467358 86.876363 
L 319.078782 86.818131 
L 319.28259 87.813688 
L 319.486398 86.51213 
L 319.690206 86.557029 
L 319.894014 86.755079 
L 320.505438 84.888986 
L 320.709246 86.765078 
L 320.913054 86.43496 
L 321.116862 87.487086 
L 321.32067 87.542448 
L 321.932094 88.032709 
L 322.33971 87.153418 
L 322.543518 88.108671 
L 323.35875 85.974442 
L 323.562558 86.569852 
L 324.173982 90.375585 
L 324.785406 90.120963 
L 325.193022 94.101677 
L 325.600638 97.122816 
L 326.619678 87.82929 
L 326.823486 89.54854 
L 327.027294 90.260378 
L 327.638718 93.252362 
L 327.842526 89.605828 
L 328.046334 89.293609 
L 328.250142 87.676282 
L 328.45395 88.040453 
L 329.269182 83.647788 
L 329.47299 83.92126 
L 329.880606 82.992986 
L 330.695838 84.378724 
L 330.899646 86.414738 
L 331.103454 86.925302 
L 331.307262 87.08144 
L 331.918687 84.955213 
L 332.122495 83.837237 
L 332.326303 81.10543 
L 332.530111 80.516178 
L 332.733919 78.335892 
L 333.345343 77.336352 
L 333.549151 74.395814 
L 333.752959 76.16422 
L 333.956767 75.382272 
L 334.160575 75.466144 
L 334.771999 73.983846 
L 334.975807 72.867385 
L 335.587231 73.614908 
L 336.402463 72.758402 
L 336.606271 74.20018 
L 336.810079 74.674944 
L 337.013887 76.441844 
L 337.829119 74.30741 
L 338.032927 74.356754 
L 338.440543 72.137786 
L 339.051967 72.583754 
L 339.255775 73.168435 
L 339.459583 72.028637 
L 339.663391 72.014861 
L 339.867199 71.360299 
L 340.682431 72.27717 
L 341.090047 73.9374 
L 341.293855 73.59426 
L 342.109087 73.248115 
L 342.312895 70.326305 
L 342.720511 68.456826 
L 343.331935 70.201054 
L 343.535743 71.801791 
L 343.739551 69.674502 
L 343.943359 70.738404 
L 344.147167 70.334581 
L 344.962399 70.314927 
L 345.166207 69.965294 
L 345.573823 67.416361 
L 346.185247 65.879698 
L 346.592863 63.116868 
L 347.000479 62.820178 
L 347.815711 61.250007 
L 348.019519 61.380252 
L 348.223327 60.523592 
L 348.427135 60.305335 
L 349.038559 60.628948 
L 349.242367 61.33008 
L 349.446175 56.569502 
L 349.649983 58.016102 
L 349.853791 57.7363 
L 350.465215 58.257816 
L 350.872831 58.989949 
L 351.280447 56.828668 
L 351.891871 57.02046 
L 352.095679 57.974268 
L 352.299487 55.69819 
L 352.707103 56.211104 
L 353.318527 56.165164 
L 353.522335 59.723494 
L 353.726143 58.892709 
L 354.133759 59.292283 
L 354.745183 59.521097 
L 354.948991 57.064661 
L 355.152799 56.243607 
L 355.356607 54.777087 
L 355.560415 55.861964 
L 356.171839 55.722194 
L 356.375647 54.449944 
L 356.987071 56.215796 
L 357.598495 56.088569 
L 357.802303 57.143985 
L 358.006111 57.390898 
L 358.209919 59.66235 
L 359.025151 57.255362 
L 359.228959 58.829595 
L 359.432767 59.435143 
L 359.636575 57.161615 
L 359.840383 58.612521 
L 360.655615 54.104081 
L 361.063231 54.226799 
L 361.267039 53.829166 
L 361.878463 51.68365 
L 362.082271 51.691987 
L 362.286079 52.167497 
L 362.489887 53.364046 
L 362.693695 52.459264 
L 363.305119 50.682297 
L 363.508927 51.269012 
L 363.712735 51.233556 
L 364.120351 50.640371 
L 364.935583 49.162339 
L 365.139391 56.397798 
L 365.547007 52.650842 
L 366.158431 51.291008 
L 366.362239 50.438927 
L 366.566047 50.560575 
L 366.769855 49.613272 
L 366.973663 49.774417 
L 367.788895 49.901915 
L 367.992703 51.308876 
L 368.400319 47.689845 
L 369.215551 46.846399 
L 369.419359 46.425426 
L 369.623167 46.446869 
L 369.826975 48.379268 
L 370.438399 48.305216 
L 370.642207 47.263458 
L 370.846015 47.953119 
L 371.049823 48.233092 
L 371.253631 46.760359 
L 371.865055 44.473508 
L 372.068863 46.889061 
L 372.272671 47.024817 
L 372.476479 47.463672 
L 372.680287 46.23923 
L 373.291711 47.139356 
L 373.495519 50.525176 
L 373.699327 48.047639 
L 373.903135 50.700494 
L 374.106943 50.588215 
L 374.718367 49.840448 
L 375.125983 48.272645 
L 375.329791 51.840595 
L 375.533599 50.15046 
L 376.145023 49.407784 
L 376.348831 48.772847 
L 376.552639 46.156896 
L 376.756447 45.678841 
L 376.960255 44.615526 
L 377.571679 44.472293 
L 377.979295 41.721214 
L 378.183103 41.152578 
L 378.386911 43.297211 
L 378.998335 43.645548 
L 379.202143 42.87509 
L 379.609759 39.566904 
L 379.813567 41.421451 
L 380.424991 42.790589 
L 380.832607 40.924584 
L 381.036415 41.415063 
L 381.240223 40.296875 
L 381.851647 39.324393 
L 382.055455 39.707979 
L 382.259263 39.419665 
L 382.463071 44.21282 
L 382.666879 43.496925 
L 383.278303 40.240521 
L 383.482111 40.450847 
L 383.685919 41.037634 
L 383.889727 46.040579 
L 384.093535 46.439169 
L 384.70496 46.610819 
L 384.908768 43.326792 
L 385.316384 45.943052 
L 385.520192 45.532473 
L 386.131616 45.239835 
L 386.539232 43.904812 
L 386.74304 42.037887 
L 386.946848 41.561831 
L 387.76208 44.638728 
L 387.965888 43.494546 
L 388.169696 44.819099 
L 388.373504 47.238187 
L 389.392544 41.60005 
L 389.596352 42.261767 
L 389.80016 40.775548 
L 390.411584 40.061882 
L 390.615392 38.782249 
L 390.8192 39.309114 
L 391.023008 40.874563 
L 391.226816 41.234646 
L 391.83824 43.263172 
L 392.042048 43.282554 
L 392.245856 41.832398 
L 392.449664 41.233527 
L 392.653472 39.985241 
L 393.264896 39.184666 
L 393.468704 38.027222 
L 393.672512 38.638416 
L 393.87632 35.683036 
L 394.080128 35.966621 
L 394.691552 37.258698 
L 394.89536 37.004104 
L 395.099168 36.232435 
L 395.302976 38.403394 
L 395.506784 38.119037 
L 396.118208 35.237702 
L 396.322016 33.697928 
L 396.525824 34.898702 
L 396.729632 35.205925 
L 396.93344 33.788996 
L 397.544864 37.434073 
L 397.748672 37.650118 
L 397.95248 40.205669 
L 398.156288 39.786584 
L 398.360096 30.572895 
L 398.97152 30.769427 
L 399.175328 31.561822 
L 399.379136 31.425604 
L 399.582944 32.307588 
L 399.786752 30.426287 
L 400.398176 29.923548 
L 400.601984 30.221894 
L 400.805792 29.433449 
L 401.0096 29.544493 
L 401.213408 29.269988 
L 401.824832 31.708639 
L 402.02864 35.276172 
L 402.232448 35.764147 
L 402.436256 34.090648 
L 402.640064 35.563608 
L 403.251488 35.587755 
L 403.659104 32.385265 
L 404.06672 30.773816 
L 404.678144 30.6514 
L 404.881952 27.235793 
L 405.08576 28.811085 
L 405.289568 26.89458 
L 405.493376 28.266531 
L 406.308608 31.001733 
L 406.716224 29.485686 
L 406.920032 27.680193 
L 407.531456 26.030098 
L 407.735264 24.20633 
L 407.939072 24.528811 
L 408.14288 25.742427 
L 408.346688 22.254257 
L 408.958112 21.274953 
L 409.16192 23.423073 
L 409.365728 24.142154 
L 409.569536 22.8326 
L 409.773344 23.287093 
L 410.588576 24.19339 
L 410.996192 22.871067 
L 411.2 24.950737 
L 411.2 24.950737 
" style="fill:none;stroke:#1f77b4;stroke-linecap:square;stroke-width:1.5;"/>
   </g>
   <g id="line2d_18">
    <path clip-path="url(#p731481a725)" d="M 40.065625 230.774014 
L 40.269433 230.26878 
L 40.880857 229.711148 
L 41.084665 230.307957 
L 41.288473 229.723179 
L 41.696089 228.262554 
L 42.307513 228.99095 
L 42.511321 229.662467 
L 42.715129 229.526587 
L 43.122745 228.594714 
L 43.937977 228.108887 
L 44.141785 227.746919 
L 44.345593 228.852566 
L 44.549401 227.571952 
L 45.160825 227.344883 
L 45.364633 227.953216 
L 45.568441 227.673806 
L 45.772249 228.435141 
L 45.976057 228.032234 
L 46.587481 230.213596 
L 46.791289 228.330889 
L 46.995097 228.414221 
L 47.198905 228.164408 
L 47.402713 227.504051 
L 48.014137 227.708491 
L 48.217945 227.951566 
L 48.421753 226.708739 
L 48.625561 226.301746 
L 48.829369 226.941984 
L 49.644601 225.353927 
L 50.052217 227.916482 
L 50.256025 227.257963 
L 50.867449 229.231813 
L 51.071257 228.596418 
L 51.275065 227.447784 
L 51.478873 227.509397 
L 51.682681 227.320439 
L 52.294105 226.990258 
L 52.497913 225.827288 
L 52.701721 226.255943 
L 52.905529 225.311682 
L 53.109337 225.476403 
L 53.720761 225.367061 
L 54.128377 226.148544 
L 54.332185 225.746982 
L 54.535993 226.514308 
L 55.555033 227.200447 
L 55.758841 228.076942 
L 55.962649 226.874451 
L 56.574073 227.53427 
L 56.981689 226.403643 
L 57.185497 226.888247 
L 58.000729 227.148637 
L 58.204537 226.467834 
L 58.408345 227.158719 
L 58.612153 226.304964 
L 58.815961 226.553212 
L 59.427385 226.486751 
L 59.631193 225.81631 
L 59.835001 223.714573 
L 60.038809 223.585207 
L 60.242617 224.097791 
L 60.854041 226.82783 
L 61.057849 225.325301 
L 61.465465 228.925856 
L 61.669273 228.261084 
L 62.280697 227.04109 
L 62.484505 225.825991 
L 62.688313 225.648019 
L 62.892121 225.031307 
L 63.095929 225.436054 
L 63.707353 224.560913 
L 63.911161 223.064575 
L 64.114969 224.646356 
L 64.318777 222.675094 
L 64.522585 222.136113 
L 65.134009 222.188168 
L 65.337817 221.921867 
L 65.541625 221.105466 
L 65.949241 221.448491 
L 66.560665 221.057202 
L 66.764474 219.98959 
L 66.968282 220.052857 
L 67.17209 220.35796 
L 67.375898 218.819167 
L 68.19113 218.612281 
L 68.802554 220.29407 
L 69.617786 219.545172 
L 69.821594 220.543751 
L 70.025402 219.254449 
L 70.22921 220.643631 
L 70.840634 220.279527 
L 71.044442 220.937888 
L 71.24825 222.428448 
L 71.452058 221.854327 
L 71.655866 220.0639 
L 72.26729 219.149859 
L 72.674906 221.613333 
L 72.878714 220.242665 
L 73.082522 221.438824 
L 73.693946 220.053959 
L 73.897754 218.944405 
L 74.101562 220.75586 
L 74.30537 223.732549 
L 74.509178 223.415004 
L 75.120602 224.607338 
L 75.732026 221.708565 
L 75.935834 221.878413 
L 76.547258 221.187037 
L 76.751066 221.129087 
L 76.954874 220.852569 
L 77.36249 219.88806 
L 77.973914 218.88325 
L 78.177722 217.587943 
L 78.38153 217.440161 
L 78.585338 215.651711 
L 78.789146 215.332913 
L 79.40057 215.083544 
L 79.808186 214.62067 
L 80.011994 214.776261 
L 80.215802 215.759898 
L 80.827226 215.342565 
L 81.031034 215.664566 
L 81.234842 214.966959 
L 81.43865 210.343532 
L 81.642458 209.915446 
L 82.253882 209.481958 
L 82.45769 208.669447 
L 82.661498 209.112655 
L 83.069114 207.491174 
L 83.680538 207.474905 
L 83.884346 208.406917 
L 84.088154 208.277747 
L 84.291962 207.67457 
L 84.49577 208.574134 
L 85.107194 208.449832 
L 85.311002 208.535994 
L 85.51481 209.090422 
L 85.718618 210.575994 
L 85.922426 210.485596 
L 86.53385 210.847097 
L 86.737658 210.706135 
L 86.941466 211.515107 
L 87.145274 210.240771 
L 87.349082 207.742407 
L 87.960506 208.620102 
L 88.164314 211.562181 
L 88.57193 210.354102 
L 88.775738 210.744558 
L 89.59097 210.870147 
L 89.794778 209.92523 
L 89.998586 209.83058 
L 90.202394 209.006374 
L 90.813818 207.639902 
L 91.017626 206.863176 
L 91.221434 206.731835 
L 91.62905 207.512391 
L 92.240474 208.255724 
L 92.64809 204.422984 
L 92.851898 204.151346 
L 93.055706 204.701662 
L 93.66713 204.825276 
L 93.870938 205.088569 
L 94.074746 204.929927 
L 94.278554 203.870009 
L 94.482362 203.810943 
L 95.093786 205.088122 
L 95.297594 203.479305 
L 95.501402 203.122722 
L 95.70521 204.669842 
L 95.909018 203.242406 
L 96.520442 204.47734 
L 96.72425 207.369192 
L 96.928058 207.340171 
L 97.131866 203.911657 
L 97.335674 202.647926 
L 97.947098 202.142803 
L 98.150906 202.782618 
L 98.76233 196.778433 
L 99.373754 196.020186 
L 99.577562 196.249441 
L 99.78137 197.687628 
L 99.985178 197.03464 
L 100.188986 194.473257 
L 100.80041 194.858736 
L 101.004218 194.66241 
L 101.411834 194.601489 
L 101.615642 194.226928 
L 102.227066 194.096607 
L 102.430874 193.634871 
L 102.634682 191.94677 
L 102.83849 194.728764 
L 103.042298 192.411966 
L 103.653722 192.821025 
L 103.85753 193.133062 
L 104.265146 190.396939 
L 104.468954 189.556671 
L 105.080378 191.044487 
L 105.284186 190.782051 
L 105.487994 191.185862 
L 105.691802 190.087517 
L 105.89561 189.611013 
L 106.507034 189.906015 
L 106.710842 189.47197 
L 106.91465 188.312579 
L 107.322266 187.596942 
L 108.137498 188.101464 
L 108.341306 186.939977 
L 108.545114 188.504793 
L 108.748922 187.447087 
L 109.564154 186.212197 
L 109.767962 188.555541 
L 110.787002 186.331536 
L 110.99081 186.911854 
L 111.194618 184.342355 
L 111.398426 184.987246 
L 112.213658 182.219244 
L 112.825082 180.814539 
L 113.02889 182.043375 
L 113.640314 183.329466 
L 113.844122 182.166923 
L 114.455546 183.942904 
L 115.06697 183.278752 
L 115.270778 182.336071 
L 115.474586 182.375143 
L 115.678394 183.630495 
L 115.882202 183.483084 
L 116.493626 185.989698 
L 116.901242 182.039832 
L 117.10505 182.392442 
L 117.308858 184.007589 
L 118.12409 183.311599 
L 118.531706 185.436014 
L 118.735514 188.88858 
L 119.346938 189.494035 
L 119.550746 189.125365 
L 119.754555 190.934877 
L 119.958363 187.126703 
L 120.162171 189.306248 
L 120.773595 193.404808 
L 120.977403 192.116249 
L 121.181211 192.602941 
L 121.588827 187.767932 
L 122.200251 187.535836 
L 122.404059 185.186689 
L 122.607867 185.886659 
L 122.811675 183.608688 
L 123.015483 183.005846 
L 123.830715 183.315764 
L 124.034523 184.415219 
L 124.238331 183.243251 
L 124.442139 184.26159 
L 125.053563 183.021901 
L 125.461179 184.327243 
L 125.664987 183.48767 
L 125.868795 183.254754 
L 126.480219 184.677812 
L 126.684027 182.108064 
L 126.887835 181.186201 
L 127.091643 180.789499 
L 127.906875 180.160006 
L 128.110683 181.395434 
L 128.314491 180.979647 
L 128.722107 183.557567 
L 129.333531 181.793872 
L 129.537339 180.06981 
L 129.741147 181.267769 
L 129.944955 179.868929 
L 130.148763 179.602539 
L 130.760187 180.29309 
L 130.963995 178.928542 
L 131.167803 181.965937 
L 131.371611 181.647097 
L 131.575419 181.043869 
L 132.186843 180.373229 
L 132.390651 178.894421 
L 132.594459 178.473517 
L 132.798267 179.933265 
L 133.002075 182.833358 
L 133.613499 184.062783 
L 133.817307 182.901531 
L 134.021115 180.402824 
L 134.224923 184.467652 
L 134.428731 185.933598 
L 135.040155 185.048465 
L 135.243963 184.070922 
L 135.447771 182.285086 
L 135.651579 182.019433 
L 136.466811 180.441749 
L 136.670619 179.597674 
L 136.874427 181.559563 
L 137.078235 179.583606 
L 137.282043 182.420035 
L 137.893467 181.358339 
L 138.301083 179.150114 
L 138.504891 179.194142 
L 138.708699 179.741705 
L 139.320123 179.391659 
L 139.523931 182.373505 
L 140.135355 181.214489 
L 140.950587 178.098604 
L 141.154395 178.997467 
L 141.358203 180.768901 
L 141.562011 180.102684 
L 142.173435 179.580252 
L 142.377243 180.400457 
L 142.581051 178.524757 
L 142.784859 178.383226 
L 142.988667 177.475905 
L 143.803899 176.288984 
L 144.007707 176.374594 
L 144.211515 175.191656 
L 144.415323 175.196561 
L 145.230555 175.837259 
L 145.434363 175.73738 
L 145.638171 173.414356 
L 145.841979 172.585535 
L 146.453403 172.032113 
L 146.657211 170.470748 
L 146.861019 171.064898 
L 147.064827 173.030911 
L 147.268635 172.464988 
L 148.083867 172.305673 
L 148.287675 170.878671 
L 148.491483 171.573888 
L 148.695291 171.163495 
L 149.306715 170.545222 
L 149.510523 171.647997 
L 149.714331 170.738197 
L 149.918139 171.173865 
L 150.121947 170.643759 
L 150.733371 171.081698 
L 150.937179 169.472393 
L 151.140987 169.833987 
L 151.344795 169.079534 
L 152.160027 169.016771 
L 152.363835 171.424332 
L 152.567643 170.039353 
L 152.771451 170.751532 
L 152.975259 168.79839 
L 153.586683 166.886646 
L 153.790491 166.816212 
L 153.994299 165.211517 
L 154.198107 167.54338 
L 154.401915 165.676161 
L 155.013339 165.894015 
L 155.420955 164.063889 
L 155.624763 163.322538 
L 155.828571 165.558738 
L 156.439995 165.624526 
L 156.643803 166.127929 
L 156.847611 165.754449 
L 157.051419 170.373347 
L 157.255227 171.36664 
L 157.866651 170.066181 
L 158.070459 171.73037 
L 158.274267 171.422986 
L 158.478075 171.775274 
L 158.681883 170.425543 
L 159.293307 169.901311 
L 159.497115 170.055397 
L 159.904731 167.028465 
L 160.108539 167.417733 
L 161.331387 164.400494 
L 161.535195 164.931808 
L 162.146619 164.156964 
L 162.350427 163.385338 
L 162.554235 163.352752 
L 162.758043 164.055979 
L 162.961851 163.173381 
L 163.777083 162.812399 
L 163.980891 163.848802 
L 164.184699 163.566577 
L 164.388507 162.044413 
L 164.999931 162.506899 
L 165.203739 164.393193 
L 165.407547 163.146679 
L 165.611355 162.595967 
L 165.815163 163.28425 
L 166.426587 164.516993 
L 166.630395 162.849061 
L 166.834203 162.765498 
L 167.241819 160.39677 
L 167.853243 161.733435 
L 168.057051 161.651817 
L 168.260859 160.777723 
L 168.464667 164.588029 
L 168.668475 162.668809 
L 169.279899 163.461361 
L 169.483707 163.24654 
L 169.687515 166.27351 
L 169.891323 166.186706 
L 170.095131 164.308442 
L 170.706555 164.349757 
L 170.910363 167.033383 
L 171.114171 163.551015 
L 171.521787 170.36892 
L 172.540827 173.904355 
L 172.744636 175.309413 
L 172.948444 171.935327 
L 173.559868 170.159519 
L 173.763676 166.434468 
L 173.967484 167.214014 
L 174.171292 165.63801 
L 174.3751 165.907328 
L 174.986524 165.889767 
L 175.190332 163.497437 
L 175.39414 164.95498 
L 175.597948 165.045294 
L 175.801756 162.349727 
L 176.616988 162.436595 
L 176.820796 162.302019 
L 177.228412 160.366413 
L 178.247452 159.3886 
L 178.45126 158.670768 
L 178.655068 157.298619 
L 179.266492 157.741952 
L 179.4703 157.12513 
L 179.674108 157.820007 
L 180.081724 156.865369 
L 180.693148 156.981315 
L 180.896956 157.32347 
L 181.100764 156.190025 
L 181.50838 156.755695 
L 182.119804 158.93778 
L 182.323612 158.498187 
L 182.52742 158.982496 
L 182.731228 159.11196 
L 182.935036 158.879227 
L 183.54646 160.901773 
L 183.750268 161.092981 
L 183.954076 164.636101 
L 184.157884 163.389476 
L 184.361692 166.113368 
L 184.973116 167.379679 
L 185.176924 170.523019 
L 185.788348 161.031552 
L 186.399772 159.298515 
L 186.60358 159.166571 
L 186.807388 159.81699 
L 187.215004 159.028714 
L 187.826428 159.182964 
L 188.030236 160.067886 
L 188.234044 162.150404 
L 188.64166 162.037874 
L 189.253084 165.665675 
L 189.456892 167.94885 
L 189.6607 166.425813 
L 189.864508 162.824749 
L 190.068316 164.428692 
L 190.67974 166.563476 
L 190.883548 166.465125 
L 191.087356 168.004124 
L 191.291164 171.247521 
L 191.494972 168.968686 
L 192.310204 168.484314 
L 192.514012 167.267099 
L 192.71782 163.652902 
L 192.921628 164.542082 
L 193.533052 164.653323 
L 193.73686 168.92148 
L 193.940668 170.43149 
L 194.144476 167.529569 
L 194.348284 167.505234 
L 194.959708 164.67153 
L 195.163516 162.252523 
L 195.367324 162.606733 
L 195.571132 160.623851 
L 196.386364 161.258016 
L 196.590172 159.921898 
L 196.79398 159.386832 
L 197.201596 156.563934 
L 198.016828 156.524396 
L 198.220636 157.131155 
L 198.424444 156.615815 
L 198.628252 155.282282 
L 199.239676 155.636751 
L 199.647292 153.979553 
L 199.8511 153.003666 
L 200.054908 154.212888 
L 200.666332 153.177721 
L 201.073948 154.80034 
L 201.277756 154.593443 
L 201.481564 157.650397 
L 202.092988 157.223681 
L 202.296796 160.999562 
L 202.500604 161.921517 
L 202.704412 159.872625 
L 202.90822 161.210061 
L 203.519644 159.216461 
L 203.723452 159.244103 
L 203.92726 156.296327 
L 204.131068 157.293031 
L 204.334876 156.202684 
L 204.9463 155.781315 
L 205.150108 156.710103 
L 205.353916 160.05203 
L 205.761532 160.574077 
L 206.372956 158.129038 
L 206.576764 160.037568 
L 206.780572 160.647633 
L 207.799612 158.098745 
L 208.207228 158.408025 
L 208.411036 156.878779 
L 208.614844 153.805883 
L 209.226268 154.462073 
L 209.633884 152.857605 
L 209.837692 153.641758 
L 210.0415 156.01289 
L 210.652924 152.951201 
L 210.856732 153.839904 
L 211.06054 152.369317 
L 211.264348 151.714409 
L 211.468156 146.514874 
L 212.07958 146.328274 
L 212.283388 145.851386 
L 212.487196 146.149402 
L 212.691004 148.527061 
L 212.894812 146.906603 
L 213.506236 146.634891 
L 213.913852 150.674455 
L 214.11766 149.448885 
L 214.321468 146.475148 
L 215.1367 148.366403 
L 215.340508 147.866041 
L 215.544316 144.710753 
L 215.748124 145.401818 
L 216.359548 144.476089 
L 216.563356 144.764641 
L 216.767164 144.483423 
L 216.970972 143.555197 
L 217.17478 144.592827 
L 217.990012 146.617954 
L 218.19382 144.529329 
L 218.397628 145.141627 
L 218.601436 146.685688 
L 219.21286 146.09879 
L 219.416668 146.297326 
L 219.620476 144.578965 
L 219.824284 146.001855 
L 220.028092 146.618875 
L 220.639516 147.798539 
L 220.843324 147.695642 
L 221.047132 145.122616 
L 221.25094 145.092607 
L 221.454748 146.707272 
L 222.066172 148.275266 
L 222.26998 146.893598 
L 222.473788 146.488413 
L 222.677596 143.804307 
L 222.881404 145.283951 
L 223.492828 143.788222 
L 223.696636 141.788839 
L 224.104252 143.252481 
L 224.30806 143.487295 
L 224.919484 147.40575 
L 225.123292 147.112447 
L 225.3271 145.873057 
L 225.530908 145.580754 
L 226.346141 146.480157 
L 226.549949 146.310887 
L 226.753757 149.586207 
L 226.957565 149.467348 
L 227.161373 146.604098 
L 227.976605 142.350696 
L 228.180413 142.31829 
L 228.588029 138.354166 
L 229.199453 137.062844 
L 229.403261 137.596437 
L 229.810877 141.245158 
L 230.014685 139.80488 
L 230.626109 141.581524 
L 231.237533 137.982473 
L 231.441341 139.893781 
L 232.052765 141.092951 
L 232.256573 142.033506 
L 232.460381 140.581737 
L 232.867997 143.337011 
L 233.479421 140.23099 
L 233.683229 143.095223 
L 233.887037 142.801674 
L 234.090845 143.052524 
L 234.294653 141.86957 
L 234.906077 140.731469 
L 235.109885 140.81154 
L 235.313693 142.570033 
L 235.517501 147.519357 
L 235.721309 155.512854 
L 236.536541 165.108404 
L 236.944157 149.795118 
L 237.147965 149.670343 
L 237.759389 151.247085 
L 237.963197 158.299234 
L 238.167005 153.208841 
L 238.370813 154.098066 
L 238.574621 156.969224 
L 239.389853 151.695463 
L 239.593661 154.223448 
L 240.001277 151.389668 
L 240.612701 152.005819 
L 241.020317 147.722569 
L 241.224125 148.387386 
L 241.427933 151.025266 
L 242.039357 149.093399 
L 242.243165 151.187364 
L 242.446973 151.19641 
L 242.854589 151.877011 
L 243.669821 156.703741 
L 243.873629 152.636048 
L 244.077437 151.979154 
L 244.281245 149.516312 
L 244.892669 145.206288 
L 245.096477 145.272303 
L 245.300285 143.836625 
L 245.707901 142.954519 
L 246.319325 142.189594 
L 246.523133 142.788345 
L 246.726941 144.153345 
L 247.134557 137.409517 
L 247.745981 137.605382 
L 247.949789 138.082378 
L 248.153597 138.979258 
L 248.561213 128.912671 
L 249.172637 128.913302 
L 249.376445 129.754982 
L 249.580253 126.927742 
L 249.784061 126.24472 
L 249.987869 128.256628 
L 251.414525 121.04792 
L 252.025949 123.477498 
L 252.229757 123.422169 
L 252.433565 122.382753 
L 252.841181 129.174019 
L 253.452605 125.82792 
L 253.656413 126.302465 
L 253.860221 122.176336 
L 254.064029 122.520337 
L 254.267837 121.403548 
L 255.083069 121.685764 
L 255.286877 122.466463 
L 255.694493 122.161938 
L 256.305917 123.107337 
L 256.509725 120.631353 
L 256.917341 125.642196 
L 257.121149 120.596706 
L 257.732573 121.982824 
L 258.140189 125.134814 
L 258.343997 124.343531 
L 258.547805 129.280141 
L 259.159229 126.50492 
L 259.363037 124.351519 
L 259.566845 120.735025 
L 259.974461 127.741173 
L 260.585885 126.087055 
L 260.789693 124.957572 
L 260.993501 122.487463 
L 261.197309 123.104646 
L 262.012541 122.829353 
L 262.216349 119.97642 
L 262.623965 124.300022 
L 263.439197 128.606966 
L 263.643005 128.565417 
L 263.846813 130.664039 
L 264.050621 138.008162 
L 264.254429 139.705035 
L 264.865853 138.962934 
L 265.069661 137.193951 
L 265.273469 142.034118 
L 265.477277 136.637329 
L 265.681085 142.133802 
L 266.496317 142.09044 
L 266.700125 145.193623 
L 266.903933 144.202231 
L 267.107741 138.435386 
L 267.719165 141.101246 
L 267.922973 137.335831 
L 268.126781 141.284399 
L 268.534397 129.955125 
L 269.145821 131.358675 
L 269.349629 135.7567 
L 269.757245 133.590783 
L 269.961053 139.473231 
L 270.776285 142.14123 
L 270.980093 142.04379 
L 271.183901 143.188546 
L 271.387709 139.250952 
L 272.202941 136.371803 
L 272.406749 133.030403 
L 272.610557 134.283369 
L 272.814365 133.945798 
L 273.425789 130.625999 
L 273.629597 134.412264 
L 273.833405 133.253466 
L 274.037213 130.919872 
L 274.241021 131.30904 
L 274.852445 133.444739 
L 275.056253 126.735763 
L 275.260061 125.316855 
L 275.667677 125.529382 
L 276.279101 126.818949 
L 276.482909 128.189653 
L 276.686717 127.102536 
L 276.890525 127.638328 
L 277.094333 125.05793 
L 277.705757 124.793498 
L 278.113373 122.582325 
L 278.317181 122.359481 
L 278.520989 122.560831 
L 279.132414 122.062868 
L 279.743838 120.419166 
L 280.55907 120.391896 
L 280.762878 117.599717 
L 280.966686 116.585247 
L 281.170494 117.884605 
L 281.374302 116.438547 
L 281.985726 117.843181 
L 282.189534 119.894283 
L 282.393342 117.732933 
L 282.59715 120.401689 
L 283.412382 120.690949 
L 283.819998 115.833695 
L 284.023806 114.798725 
L 284.227614 115.59333 
L 284.839038 114.427358 
L 285.246654 112.622317 
L 285.450462 113.696474 
L 285.65427 116.566502 
L 286.265694 116.56167 
L 286.877118 119.342667 
L 287.080926 117.102603 
L 287.69235 114.595915 
L 288.099966 117.762843 
L 288.303774 118.577183 
L 288.507582 116.879536 
L 289.119006 117.092862 
L 289.322814 113.351901 
L 289.526622 113.952985 
L 289.73043 113.758364 
L 289.934238 115.736638 
L 290.545662 113.519658 
L 290.74947 115.532057 
L 290.953278 114.538853 
L 291.157086 115.515481 
L 291.360894 114.512822 
L 291.972318 115.375138 
L 292.379934 110.382423 
L 292.78755 109.485802 
L 293.602782 109.241585 
L 293.80659 109.986466 
L 294.010398 109.751868 
L 294.214206 110.586139 
L 295.233246 108.121475 
L 295.437054 107.942885 
L 295.640862 109.692948 
L 296.252286 111.961764 
L 296.456094 111.511554 
L 296.659902 112.179991 
L 296.86371 110.746695 
L 297.067518 112.541046 
L 297.678942 111.624228 
L 297.88275 109.894734 
L 298.086558 110.561795 
L 298.290366 107.453708 
L 298.494174 115.490944 
L 299.105598 118.643913 
L 299.513214 109.852684 
L 299.717022 106.61498 
L 299.92083 106.152239 
L 300.736062 107.231022 
L 300.93987 104.890685 
L 301.143678 105.657129 
L 301.347486 102.897569 
L 301.95891 101.94097 
L 302.162718 100.963504 
L 302.366526 101.27394 
L 302.570334 99.675861 
L 302.774142 99.700631 
L 303.589374 98.490547 
L 303.793182 96.7403 
L 303.99699 97.747961 
L 304.200798 97.361627 
L 304.812222 98.884945 
L 305.01603 99.889297 
L 305.219838 97.894313 
L 305.423646 97.041731 
L 305.627454 96.752352 
L 306.238878 96.981689 
L 306.442686 97.875611 
L 306.850302 96.245528 
L 307.05411 94.090557 
L 307.869342 93.594786 
L 308.07315 94.683242 
L 308.276958 94.035427 
L 308.480766 94.04441 
L 309.09219 94.220702 
L 309.295998 95.936263 
L 309.499806 95.250535 
L 309.703614 95.431253 
L 309.907422 96.552884 
L 310.518846 96.700902 
L 310.722654 96.496813 
L 310.926462 97.09259 
L 311.334078 96.741642 
L 311.945502 95.226599 
L 312.353118 96.268201 
L 312.556926 96.240986 
L 312.760734 95.342376 
L 313.575966 93.589216 
L 313.779774 93.485659 
L 313.983582 94.371278 
L 314.18739 100.474683 
L 314.798814 97.010774 
L 315.002622 99.745307 
L 315.20643 99.150793 
L 315.410238 96.129281 
L 315.614046 96.830805 
L 316.22547 97.954838 
L 316.429278 97.930902 
L 316.836894 93.636499 
L 317.040702 95.046741 
L 317.652126 97.131584 
L 318.059742 92.504565 
L 318.26355 95.125732 
L 318.467358 93.567428 
L 319.078782 93.519863 
L 319.28259 94.499962 
L 319.486398 93.239911 
L 319.690206 93.292929 
L 319.894014 93.495283 
L 320.505438 91.684939 
L 320.709246 93.523486 
L 320.913054 93.210846 
L 321.116862 94.245872 
L 321.32067 94.309047 
L 321.932094 94.7962 
L 322.33971 93.957403 
L 322.543518 94.897791 
L 323.35875 92.835852 
L 323.562558 93.425445 
L 324.173982 97.16217 
L 324.785406 96.923124 
L 325.193022 100.820502 
L 325.600638 103.782303 
L 326.619678 94.754049 
L 326.823486 96.438271 
L 327.027294 97.140904 
L 327.638718 100.064844 
L 327.842526 96.521452 
L 328.046334 96.226426 
L 328.250142 94.660095 
L 328.45395 95.024013 
L 329.269182 90.763849 
L 329.47299 91.039527 
L 329.880606 90.144752 
L 330.695838 91.512978 
L 330.899646 93.505032 
L 331.103454 94.011449 
L 331.307262 94.172702 
L 331.918687 92.111513 
L 332.122495 91.032208 
L 332.326303 88.381637 
L 332.530111 87.817324 
L 332.733919 85.704014 
L 333.345343 84.740391 
L 333.549151 81.887203 
L 333.752959 83.618384 
L 333.956767 82.866755 
L 334.160575 82.957998 
L 334.771999 81.524724 
L 334.975807 80.447644 
L 335.587231 81.204231 
L 336.402463 80.38031 
L 336.606271 81.79313 
L 336.810079 82.264789 
L 337.013887 83.993828 
L 337.829119 81.929114 
L 338.032927 81.989512 
L 338.440543 79.855301 
L 339.051967 80.301668 
L 339.255775 80.882947 
L 339.459583 79.786545 
L 339.663391 79.785625 
L 339.867199 79.161383 
L 340.682431 80.065732 
L 341.090047 81.705428 
L 341.293855 81.384094 
L 342.109087 81.07229 
L 342.312895 78.243434 
L 342.720511 76.450743 
L 343.331935 78.159299 
L 343.535743 79.72819 
L 343.739551 77.672482 
L 343.943359 78.719356 
L 344.147167 78.339315 
L 344.962399 78.3453 
L 345.166207 78.018002 
L 345.573823 75.565779 
L 346.185247 74.085012 
L 346.592863 71.425614 
L 347.000479 71.163034 
L 347.815711 69.650242 
L 348.019519 69.789726 
L 348.223327 68.970355 
L 348.427135 68.77128 
L 349.038559 69.098639 
L 349.242367 69.792703 
L 349.446175 65.178383 
L 349.649983 66.593764 
L 349.853791 66.332155 
L 350.465215 66.848875 
L 350.872831 67.580256 
L 351.280447 65.50159 
L 351.891871 65.69805 
L 352.095679 66.634478 
L 352.299487 64.434459 
L 352.707103 64.952977 
L 353.318527 64.918598 
L 353.522335 68.383659 
L 353.726143 67.587172 
L 354.133759 67.995351 
L 354.745183 68.227597 
L 354.948991 65.853138 
L 355.152799 65.066326 
L 355.356607 63.653031 
L 355.560415 64.71633 
L 356.171839 64.596751 
L 356.375647 63.37805 
L 356.987071 65.14009 
L 357.598495 65.032695 
L 357.802303 66.072818 
L 358.006111 66.328389 
L 358.209919 68.548103 
L 359.025151 66.22889 
L 359.228959 67.772012 
L 359.432767 68.375321 
L 359.636575 66.185953 
L 359.840383 67.60921 
L 360.655615 63.268734 
L 361.063231 63.420057 
L 361.267039 63.050646 
L 361.878463 60.986537 
L 362.082271 61.010908 
L 362.286079 61.488195 
L 362.489887 62.664433 
L 362.693695 61.803548 
L 363.305119 60.097325 
L 363.508927 60.68235 
L 363.712735 60.664289 
L 364.120351 60.122034 
L 364.935583 58.722476 
L 365.139391 65.749732 
L 365.547007 62.151548 
L 366.158431 60.85037 
L 366.362239 60.041217 
L 366.566047 60.175396 
L 366.769855 59.274136 
L 366.973663 59.4466 
L 367.788895 59.586458 
L 367.992703 60.965431 
L 368.400319 57.493446 
L 369.215551 56.709725 
L 369.419359 56.318657 
L 369.623167 56.355961 
L 369.826975 58.243268 
L 370.438399 58.18802 
L 370.642207 57.196042 
L 370.846015 57.880091 
L 371.049823 58.167533 
L 371.253631 56.758609 
L 371.865055 54.561948 
L 372.068863 56.916197 
L 372.272671 57.064076 
L 372.476479 57.505227 
L 372.680287 56.33697 
L 373.291711 57.224402 
L 373.495519 60.516561 
L 373.699327 58.136076 
L 373.903135 60.718783 
L 374.106943 60.626477 
L 374.718367 59.922469 
L 375.125983 58.425425 
L 375.329791 61.895501 
L 375.533599 60.280223 
L 376.145023 59.581349 
L 376.348831 58.986745 
L 376.552639 56.476824 
L 376.756447 56.034177 
L 376.960255 55.025787 
L 377.571679 54.906962 
L 377.979295 52.287159 
L 378.183103 51.757386 
L 378.386911 53.849888 
L 378.998335 54.206225 
L 379.202143 53.481412 
L 379.609759 50.324562 
L 379.813567 52.136225 
L 380.424991 53.478718 
L 380.832607 51.715753 
L 381.036415 52.209343 
L 381.240223 51.149206 
L 381.851647 50.229924 
L 382.055455 50.620295 
L 382.259263 50.361815 
L 382.463071 55.009825 
L 382.666879 54.338269 
L 383.278303 51.214114 
L 383.482111 51.43704 
L 383.685919 52.023339 
L 383.889727 56.872234 
L 384.093535 57.276462 
L 384.70496 57.461614 
L 384.908768 54.311825 
L 385.316384 56.875697 
L 385.520192 56.499058 
L 386.131616 56.236261 
L 386.539232 54.987506 
L 386.74304 53.206278 
L 386.946848 52.76989 
L 387.76208 55.760327 
L 387.965888 54.67947 
L 388.169696 55.979469 
L 388.373504 58.334693 
L 389.392544 52.966487 
L 389.596352 53.627178 
L 389.80016 52.217368 
L 390.411584 51.552382 
L 390.615392 50.342042 
L 390.8192 50.872784 
L 391.023008 52.404241 
L 391.226816 52.77405 
L 391.83824 54.7513 
L 392.042048 54.79265 
L 392.245856 53.418353 
L 392.449664 52.864267 
L 392.653472 51.684761 
L 393.264896 50.933574 
L 393.468704 49.838804 
L 393.672512 50.447347 
L 393.87632 47.621483 
L 394.080128 47.914653 
L 394.691552 49.178758 
L 394.89536 48.953668 
L 395.099168 48.230836 
L 395.302976 50.340698 
L 395.506784 50.086931 
L 396.118208 47.333652 
L 396.322016 45.871877 
L 396.525824 47.047684 
L 396.729632 47.363478 
L 396.93344 46.020195 
L 397.544864 49.547605 
L 397.748672 49.775457 
L 397.95248 52.25399 
L 398.156288 51.870654 
L 398.360096 43.027663 
L 398.97152 43.237116 
L 399.175328 44.019641 
L 399.379136 43.908987 
L 399.582944 44.777525 
L 399.786752 42.988751 
L 400.398176 42.525763 
L 400.601984 42.833066 
L 400.805792 42.095467 
L 401.0096 42.222697 
L 401.213408 41.979284 
L 401.824832 44.343884 
L 402.02864 47.793225 
L 402.232448 48.282329 
L 402.436256 46.694095 
L 402.640064 48.129763 
L 403.251488 48.17305 
L 403.659104 45.136272 
L 404.06672 43.608377 
L 404.678144 43.511154 
L 404.881952 40.250473 
L 405.08576 41.784213 
L 405.289568 39.963936 
L 405.493376 41.302204 
L 406.308608 43.969867 
L 406.716224 42.554909 
L 406.920032 40.841883 
L 407.531456 39.27827 
L 407.735264 37.548138 
L 407.939072 37.878467 
L 408.14288 39.064122 
L 408.346688 35.736853 
L 408.958112 34.817868 
L 409.16192 36.900315 
L 409.365728 37.611168 
L 409.569536 36.375354 
L 409.773344 36.832283 
L 410.588576 37.722626 
L 410.996192 36.495641 
L 411.2 38.511381 
L 411.2 38.511381 
" style="fill:none;stroke:#ff7f0e;stroke-linecap:square;stroke-width:1.5;"/>
   </g>
   <g id="patch_3">
    <path d="M 40.065625 241.248967 
L 40.065625 10.8 
" style="fill:none;stroke:#000000;stroke-linecap:square;stroke-linejoin:miter;stroke-width:0.8;"/>
   </g>
   <g id="patch_4">
    <path d="M 411.2 241.248967 
L 411.2 10.8 
" style="fill:none;stroke:#000000;stroke-linecap:square;stroke-linejoin:miter;stroke-width:0.8;"/>
   </g>
   <g id="patch_5">
    <path d="M 40.065625 241.248967 
L 411.2 241.248967 
" style="fill:none;stroke:#000000;stroke-linecap:square;stroke-linejoin:miter;stroke-width:0.8;"/>
   </g>
   <g id="patch_6">
    <path d="M 40.065625 10.8 
L 411.2 10.8 
" style="fill:none;stroke:#000000;stroke-linecap:square;stroke-linejoin:miter;stroke-width:0.8;"/>
   </g>
   <g id="legend_1">
    <g id="patch_7">
     <path d="M 47.065625 48.434375 
L 159.860938 48.434375 
Q 161.860938 48.434375 161.860938 46.434375 
L 161.860938 17.8 
Q 161.860938 15.8 159.860938 15.8 
L 47.065625 15.8 
Q 45.065625 15.8 45.065625 17.8 
L 45.065625 46.434375 
Q 45.065625 48.434375 47.065625 48.434375 
z
" style="fill:#ffffff;opacity:0.8;stroke:#cccccc;stroke-linejoin:miter;"/>
    </g>
    <g id="line2d_19">
     <path d="M 49.065625 23.898438 
L 69.065625 23.898438 
" style="fill:none;stroke:#1f77b4;stroke-linecap:square;stroke-width:1.5;"/>
    </g>
    <g id="line2d_20"/>
    <g id="text_18">
     <!-- Portfolio -->
     <defs>
      <path d="M 19.671875 64.796875 
L 19.671875 37.40625 
L 32.078125 37.40625 
Q 38.96875 37.40625 42.71875 40.96875 
Q 46.484375 44.53125 46.484375 51.125 
Q 46.484375 57.671875 42.71875 61.234375 
Q 38.96875 64.796875 32.078125 64.796875 
z
M 9.8125 72.90625 
L 32.078125 72.90625 
Q 44.34375 72.90625 50.609375 67.359375 
Q 56.890625 61.8125 56.890625 51.125 
Q 56.890625 40.328125 50.609375 34.8125 
Q 44.34375 29.296875 32.078125 29.296875 
L 19.671875 29.296875 
L 19.671875 0 
L 9.8125 0 
z
" id="DejaVuSans-80"/>
      <path d="M 30.609375 48.390625 
Q 23.390625 48.390625 19.1875 42.75 
Q 14.984375 37.109375 14.984375 27.296875 
Q 14.984375 17.484375 19.15625 11.84375 
Q 23.34375 6.203125 30.609375 6.203125 
Q 37.796875 6.203125 41.984375 11.859375 
Q 46.1875 17.53125 46.1875 27.296875 
Q 46.1875 37.015625 41.984375 42.703125 
Q 37.796875 48.390625 30.609375 48.390625 
z
M 30.609375 56 
Q 42.328125 56 49.015625 48.375 
Q 55.71875 40.765625 55.71875 27.296875 
Q 55.71875 13.875 49.015625 6.21875 
Q 42.328125 -1.421875 30.609375 -1.421875 
Q 18.84375 -1.421875 12.171875 6.21875 
Q 5.515625 13.875 5.515625 27.296875 
Q 5.515625 40.765625 12.171875 48.375 
Q 18.84375 56 30.609375 56 
z
" id="DejaVuSans-111"/>
      <path d="M 41.109375 46.296875 
Q 39.59375 47.171875 37.8125 47.578125 
Q 36.03125 48 33.890625 48 
Q 26.265625 48 22.1875 43.046875 
Q 18.109375 38.09375 18.109375 28.8125 
L 18.109375 0 
L 9.078125 0 
L 9.078125 54.6875 
L 18.109375 54.6875 
L 18.109375 46.1875 
Q 20.953125 51.171875 25.484375 53.578125 
Q 30.03125 56 36.53125 56 
Q 37.453125 56 38.578125 55.875 
Q 39.703125 55.765625 41.0625 55.515625 
z
" id="DejaVuSans-114"/>
      <path d="M 37.109375 75.984375 
L 37.109375 68.5 
L 28.515625 68.5 
Q 23.6875 68.5 21.796875 66.546875 
Q 19.921875 64.59375 19.921875 59.515625 
L 19.921875 54.6875 
L 34.71875 54.6875 
L 34.71875 47.703125 
L 19.921875 47.703125 
L 19.921875 0 
L 10.890625 0 
L 10.890625 47.703125 
L 2.296875 47.703125 
L 2.296875 54.6875 
L 10.890625 54.6875 
L 10.890625 58.5 
Q 10.890625 67.625 15.140625 71.796875 
Q 19.390625 75.984375 28.609375 75.984375 
z
" id="DejaVuSans-102"/>
      <path d="M 9.421875 75.984375 
L 18.40625 75.984375 
L 18.40625 0 
L 9.421875 0 
z
" id="DejaVuSans-108"/>
      <path d="M 9.421875 54.6875 
L 18.40625 54.6875 
L 18.40625 0 
L 9.421875 0 
z
M 9.421875 75.984375 
L 18.40625 75.984375 
L 18.40625 64.59375 
L 9.421875 64.59375 
z
" id="DejaVuSans-105"/>
     </defs>
     <g transform="translate(77.065625 27.398438)scale(0.1 -0.1)">
      <use xlink:href="#DejaVuSans-80"/>
      <use x="60.255859" xlink:href="#DejaVuSans-111"/>
      <use x="121.4375" xlink:href="#DejaVuSans-114"/>
      <use x="162.550781" xlink:href="#DejaVuSans-116"/>
      <use x="201.759766" xlink:href="#DejaVuSans-102"/>
      <use x="236.964844" xlink:href="#DejaVuSans-111"/>
      <use x="298.146484" xlink:href="#DejaVuSans-108"/>
      <use x="325.929688" xlink:href="#DejaVuSans-105"/>
      <use x="353.712891" xlink:href="#DejaVuSans-111"/>
     </g>
    </g>
    <g id="line2d_21">
     <path d="M 49.065625 38.576563 
L 69.065625 38.576563 
" style="fill:none;stroke:#ff7f0e;stroke-linecap:square;stroke-width:1.5;"/>
    </g>
    <g id="line2d_22"/>
    <g id="text_19">
     <!-- Portfolio_Excess -->
     <defs>
      <path d="M 50.984375 -16.609375 
L 50.984375 -23.578125 
L -0.984375 -23.578125 
L -0.984375 -16.609375 
z
" id="DejaVuSans-95"/>
      <path d="M 9.8125 72.90625 
L 55.90625 72.90625 
L 55.90625 64.59375 
L 19.671875 64.59375 
L 19.671875 43.015625 
L 54.390625 43.015625 
L 54.390625 34.71875 
L 19.671875 34.71875 
L 19.671875 8.296875 
L 56.78125 8.296875 
L 56.78125 0 
L 9.8125 0 
z
" id="DejaVuSans-69"/>
      <path d="M 54.890625 54.6875 
L 35.109375 28.078125 
L 55.90625 0 
L 45.3125 0 
L 29.390625 21.484375 
L 13.484375 0 
L 2.875 0 
L 24.125 28.609375 
L 4.6875 54.6875 
L 15.28125 54.6875 
L 29.78125 35.203125 
L 44.28125 54.6875 
z
" id="DejaVuSans-120"/>
      <path d="M 48.78125 52.59375 
L 48.78125 44.1875 
Q 44.96875 46.296875 41.140625 47.34375 
Q 37.3125 48.390625 33.40625 48.390625 
Q 24.65625 48.390625 19.8125 42.84375 
Q 14.984375 37.3125 14.984375 27.296875 
Q 14.984375 17.28125 19.8125 11.734375 
Q 24.65625 6.203125 33.40625 6.203125 
Q 37.3125 6.203125 41.140625 7.25 
Q 44.96875 8.296875 48.78125 10.40625 
L 48.78125 2.09375 
Q 45.015625 0.34375 40.984375 -0.53125 
Q 36.96875 -1.421875 32.421875 -1.421875 
Q 20.0625 -1.421875 12.78125 6.34375 
Q 5.515625 14.109375 5.515625 27.296875 
Q 5.515625 40.671875 12.859375 48.328125 
Q 20.21875 56 33.015625 56 
Q 37.15625 56 41.109375 55.140625 
Q 45.0625 54.296875 48.78125 52.59375 
z
" id="DejaVuSans-99"/>
      <path d="M 44.28125 53.078125 
L 44.28125 44.578125 
Q 40.484375 46.53125 36.375 47.5 
Q 32.28125 48.484375 27.875 48.484375 
Q 21.1875 48.484375 17.84375 46.4375 
Q 14.5 44.390625 14.5 40.28125 
Q 14.5 37.15625 16.890625 35.375 
Q 19.28125 33.59375 26.515625 31.984375 
L 29.59375 31.296875 
Q 39.15625 29.25 43.1875 25.515625 
Q 47.21875 21.78125 47.21875 15.09375 
Q 47.21875 7.46875 41.1875 3.015625 
Q 35.15625 -1.421875 24.609375 -1.421875 
Q 20.21875 -1.421875 15.453125 -0.5625 
Q 10.6875 0.296875 5.421875 2 
L 5.421875 11.28125 
Q 10.40625 8.6875 15.234375 7.390625 
Q 20.0625 6.109375 24.8125 6.109375 
Q 31.15625 6.109375 34.5625 8.28125 
Q 37.984375 10.453125 37.984375 14.40625 
Q 37.984375 18.0625 35.515625 20.015625 
Q 33.0625 21.96875 24.703125 23.78125 
L 21.578125 24.515625 
Q 13.234375 26.265625 9.515625 29.90625 
Q 5.8125 33.546875 5.8125 39.890625 
Q 5.8125 47.609375 11.28125 51.796875 
Q 16.75 56 26.8125 56 
Q 31.78125 56 36.171875 55.265625 
Q 40.578125 54.546875 44.28125 53.078125 
z
" id="DejaVuSans-115"/>
     </defs>
     <g transform="translate(77.065625 42.076563)scale(0.1 -0.1)">
      <use xlink:href="#DejaVuSans-80"/>
      <use x="60.255859" xlink:href="#DejaVuSans-111"/>
      <use x="121.4375" xlink:href="#DejaVuSans-114"/>
      <use x="162.550781" xlink:href="#DejaVuSans-116"/>
      <use x="201.759766" xlink:href="#DejaVuSans-102"/>
      <use x="236.964844" xlink:href="#DejaVuSans-111"/>
      <use x="298.146484" xlink:href="#DejaVuSans-108"/>
      <use x="325.929688" xlink:href="#DejaVuSans-105"/>
      <use x="353.712891" xlink:href="#DejaVuSans-111"/>
      <use x="414.894531" xlink:href="#DejaVuSans-95"/>
      <use x="464.894531" xlink:href="#DejaVuSans-69"/>
      <use x="528.078125" xlink:href="#DejaVuSans-120"/>
      <use x="587.242188" xlink:href="#DejaVuSans-99"/>
      <use x="642.222656" xlink:href="#DejaVuSans-101"/>
      <use x="703.746094" xlink:href="#DejaVuSans-115"/>
      <use x="755.845703" xlink:href="#DejaVuSans-115"/>
     </g>
    </g>
   </g>
  </g>
 </g>
 <defs>
  <clipPath id="p731481a725">
   <rect height="230.448967" width="371.134375" x="40.065625" y="10.8"/>
  </clipPath>
 </defs>
</svg>
